<?xml version="1.0" encoding="UTF-8" standalone="no"?>
<!-- Created with Inkscape (http://www.inkscape.org/) -->

<svg
   xmlns:osb="http://www.openswatchbook.org/uri/2009/osb"
   xmlns:dc="http://purl.org/dc/elements/1.1/"
   xmlns:cc="http://creativecommons.org/ns#"
   xmlns:rdf="http://www.w3.org/1999/02/22-rdf-syntax-ns#"
   xmlns:svg="http://www.w3.org/2000/svg"
   xmlns="http://www.w3.org/2000/svg"
   xmlns:sodipodi="http://sodipodi.sourceforge.net/DTD/sodipodi-0.dtd"
   xmlns:inkscape="http://www.inkscape.org/namespaces/inkscape"
   version="1.1"
   id="svg2"
   width="2240"
   height="1080"
   viewBox="0 0 2240 1080"
   sodipodi:docname="NextDom_Wide.svg"
   inkscape:export-filename="C:\Users\cyril\Google Drive\Jeedom\Dev\NextDom\NextDom_BlueWhiteBlack.png"
   inkscape:export-xdpi="96"
   inkscape:export-ydpi="96"
   inkscape:version="0.92.3 (2405546, 2018-03-11)">
  <metadata
     id="metadata8">
    <rdf:RDF>
      <cc:Work
         rdf:about="">
        <dc:format>image/svg+xml</dc:format>
        <dc:type
           rdf:resource="http://purl.org/dc/dcmitype/StillImage" />
        <dc:title></dc:title>
      </cc:Work>
    </rdf:RDF>
  </metadata>
  <defs
     id="defs6">
    <linearGradient
       id="linearGradient2401"
       osb:paint="solid">
      <stop
         style="stop-color:#33b8cc;stop-opacity:1;"
         offset="0"
         id="stop2399" />
    </linearGradient>
    <linearGradient
       id="linearGradient931"
       osb:paint="solid">
      <stop
         style="stop-color:#33b8cc;stop-opacity:1;"
         offset="0"
         id="stop929" />
    </linearGradient>
  </defs>
  <sodipodi:namedview
     pagecolor="#ffffff"
     bordercolor="#666666"
     borderopacity="1"
     objecttolerance="10"
     gridtolerance="10"
     guidetolerance="10"
     inkscape:pageopacity="0"
     inkscape:pageshadow="2"
     inkscape:window-width="1920"
     inkscape:window-height="1057"
     id="namedview4"
     showgrid="true"
     inkscape:zoom="0.42440064"
     inkscape:cx="993.83112"
     inkscape:cy="740.01338"
     inkscape:window-x="-8"
     inkscape:window-y="-8"
     inkscape:window-maximized="1"
     inkscape:current-layer="layer20"
     showguides="false">
    <inkscape:grid
       type="xygrid"
       id="grid3717" />
  </sodipodi:namedview>
  <g
     inkscape:groupmode="layer"
     id="layer21"
     inkscape:label="Fond Bleu"
     style="display:inline">
    <path
       inkscape:connector-curvature="0"
       id="path5150"
       d="m 40,1060 h -1 c -4.7726,0 -9.6253,-2.6253 -13,-6 -3.3747,-3.3747 -6,-8.2274 -6,-13 V 1040 39.99996 l -0.027,-1.04275 c -0.12009,-4.63793 2.8035,-9.72807 6.0197,-12.94428 3.215,-3.21499 8.6545,-5.8552 13.02509,-5.98402 L 40,19.99991 c 225.56903,-8.5e-5 1034.6856,6.8e-5 1020,9e-5 v 1040 z"
       style="display:inline;fill:#32b7cb"
       sodipodi:nodetypes="csasccssscccc" />
    <path
       inkscape:connector-curvature="0"
       id="path5150-8"
       d="m 1060,1060 c -4.0852,-344.17005 -0.988,-693.94707 -0.982,-1039.97104 333.6598,-0.05812 807.3217,-0.029 1140.9822,-0.029 l 1.007,-0.0159 c 4.7903,-0.0757 9.6437,2.61587 13.0169,5.99928 3.3728,3.38301 5.8775,8.28018 5.9592,13.03351 l 0.017,0.98311 V 1040 v 1.0269 c 0.01,4.7726 -2.6479,9.6018 -6.0182,12.9731 -3.358,3.359 -8.1514,6 -12.924,6 h -1.0578 z"
       style="display:inline;fill:#32b7cb"
       sodipodi:nodetypes="cccsasccsascc" />
  </g>
  <g
     inkscape:groupmode="layer"
     id="layer6"
     inkscape:label="Logo Blanc"
     style="display:inline">
    <g
       id="g954"
       transform="matrix(1.2935048,-0.3331508,0.3331508,1.2935048,-839.35746,384.53131)"
       style="display:inline;fill:#ffffff;fill-opacity:1">
      <path
         style="fill:#ffffff;fill-opacity:1;stroke-width:0.60950065"
         d="m 1929.3282,941.80239 45.5864,-26.91357 -18.8648,-64.69223 -0.9137,-3.19988 -2.8781,-0.009 c -4.4062,-0.0138 -10.3,-1.62732 -14.7769,-4.04541 l -4.0464,-2.18555 -34.7936,25.32516 c -0.261,0.22844 -0.059,2.17662 0.4481,4.3293 6.9505,29.4875 -21.8444,58.04141 -51.0093,50.58228 -15.2027,-3.88816 -28.2833,-17.18183 -31.8269,-32.34505 -5.8639,-25.09254 15.2838,-51.23724 41.4042,-51.18761 11.1446,0.0212 22.3269,4.91914 30.4587,13.34124 1.3251,1.37243 2.5952,2.49533 2.8225,2.49533 0.5261,0 30.8135,-22.69694 31.6015,-23.43954 0.3752,-0.35355 0.2962,-1.26657 -0.2185,-2.52604 -4.0331,-13.61338 -2.5063,-24.00602 5.0871,-34.07956 0.8945,-1.19392 0,0 0,0 l -19.4491,-38.63048 -58,-14.9383 19.6065,-76.12501 72.5,18.67286 -16.8055,65.25002 c 0,0.57985 16.4758,33.16175 17.3911,34.1639 9.7236,0.34545 20.7792,0.7225 28.6154,6.58748 7.4954,7.75893 13.0039,14.91486 12.8647,23.74342 l 5.2844,1.29333 0.7278,-2.89038 c 1.0176,-4.041 4.9983,-11.46525 8.4342,-15.73019 5.6094,-6.96288 13.9859,-12.45262 22.6745,-14.86036 24.4048,-6.76291 51.0967,13.29219 52.2671,39.27119 0.3394,7.53321 -0.7512,12.67493 -4.1475,19.55438 -9.1367,18.50683 -29.6696,28.47846 -48.1296,23.37371 -11.6069,-3.20969 -22.0935,-11.66987 -27.5369,-22.21588 -1.5604,-3.02297 -3.1638,-6.79425 -3.5633,-8.38063 l -0.7263,-2.88429 c 0,0 0.4341,-0.58448 -8.1256,-0.57848 -8.5747,1.55937 3.4957,-6.42986 -1.7402,2.71785 -1.2205,2.13229 -3.8992,5.33937 -6.2605,7.4954 l -4.1272,3.76845 19.4281,64.90449 13.6759,-8.07407 32.1867,70.13738 z m 67.3365,-21.31171 -31.9106,18.8395 47.1251,12.13736 z m -133.8144,-13.58873 c 9.9901,-1.59312 17.4922,-7.67168 20.8487,-16.89247 1.8755,-5.15248 1.8846,-14.85621 0.019,-20.25558 -2.5745,-7.45057 -8.5679,-13.43868 -15.9916,-15.97756 -3.1553,-1.07907 -5.2647,-1.34645 -10.3616,-1.31339 -7.045,0.0457 -11.4077,1.26908 -16.2096,4.54546 -13.0841,8.92755 -14.816,31.14744 -3.3234,42.64005 6.1681,6.16813 15.2725,8.8077 25.0186,7.25349 z m 174.9409,-59.15927 c 11.2956,-2.39423 18.8822,-10.50277 20.6602,-22.08152 0.8887,-5.78727 -0.05,-12.62191 -2.4349,-17.71918 -8.1922,-17.51261 -35.1501,-19.86289 -47.0869,-4.1052 -3.5235,4.65135 -5.0231,9.7419 -5.0231,17.05145 0,4.72179 0.3071,6.9876 1.3628,10.05676 4.4543,12.94913 17.9042,19.89605 32.5219,16.79769 z m -113.9598,-154.74592 -43.5001,-11.20372 -12.1373,47.12501 43.5,11.20372 z"
         id="path952"
         inkscape:connector-curvature="0"
         sodipodi:nodetypes="cccccccccccccscccccccccccccsssccccccccccccccccccccccscccccccssccccccc" />
    </g>
  </g>
  <g
     inkscape:groupmode="layer"
     id="layer8"
     inkscape:label="Maison Blanc"
     style="display:inline">
    <path
       id="path5281"
       d="M 340,960 V 500 H 210 L 560,210 V 120 L 380,270 v -80 h 40 V 120 H 270 v 70 h 40 V 330 L 120,485 v 85 H 270 V 890 H 120 v 70 z"
       style="display:inline;fill:#ffffff;fill-opacity:1;stroke-width:1.28406775"
       inkscape:connector-curvature="0"
       sodipodi:nodetypes="cccccccccccccccccccc" />
  </g>
  <g
     inkscape:groupmode="layer"
     id="layer10"
     inkscape:label="Lettres Blanc"
     style="display:inline">
    <g
       style="display:inline;opacity:1"
       id="g5384"
       transform="translate(-8,-8)">
      <g
         id="g5354">
        <path
           sodipodi:nodetypes="cccc"
           inkscape:connector-curvature="0"
           style="display:inline;fill:#ffffff;fill-opacity:1;stroke-width:1.17232883"
           d="m 628,198 70,-70 h -70 z"
           id="path4912-00" />
        <path
           sodipodi:nodetypes="ccaaaaaaaaaaaaaaccccaaaaaaaaaaaaaaaaaaaaaccc"
           inkscape:connector-curvature="0"
           style="display:inline;fill:#ffffff;fill-opacity:1;stroke-width:1.20804572"
           d="M 708,468 V 293 c 0,0 0.88588,-10.21267 1.95905,-15.21096 1.41694,-6.59938 3.31991,-13.13198 5.88548,-19.37518 2.42389,-5.89841 5.35814,-11.63433 8.91729,-16.92573 3.37752,-5.02137 7.41336,-9.60814 11.68652,-13.89322 3.974,-3.98509 8.32671,-7.61074 12.89024,-10.90434 5.03765,-3.63579 10.27919,-7.08133 15.90696,-9.7129 5.91394,-2.76539 12.18129,-4.84916 18.55028,-6.2838 6.68573,-1.506 13.56837,-2.51963 20.4204,-2.38982 7.91968,0.15004 15.89299,1.38018 23.48067,3.65417 6.71764,2.01325 13.10984,5.15315 19.14104,8.73147 5.4287,3.22086 10.42514,7.17453 15.15522,11.35436 4.62886,4.09039 8.97279,8.54364 12.85182,13.35101 4.04215,5.00952 7.66257,10.39163 10.76801,16.02994 3.45009,6.26407 6.70531,12.74996 8.65726,19.62976 C 896.74517,279.77784 898.0197,289.28501 898,298 v 170 h 70 V 298 c -0.0191,-7.98743 -1.37244,-17.85833 -2.92569,-26.66359 -1.65007,-9.35415 -3.85904,-18.63839 -6.77126,-27.67951 -2.79758,-8.68522 -6.22358,-17.1932 -10.23764,-25.38752 -2.81875,-5.75421 -6.10119,-11.29236 -9.67936,-16.60771 -3.29936,-4.90117 -6.95172,-9.57405 -10.82947,-14.03166 -5.02556,-5.77706 -10.37136,-11.29958 -16.06654,-16.41773 -6.14506,-5.52245 -12.62997,-10.70177 -19.45892,-15.35201 -6.26862,-4.26868 -12.83353,-8.14657 -19.657,-11.45679 -6.92103,-3.35755 -14.11314,-6.21324 -21.46819,-8.46648 -8.49409,-2.60219 -17.22322,-4.51429 -26.01525,-5.78756 -9.67427,-1.40103 -19.48862,-2.39674 -29.25633,-2.01419 -9.08071,0.35565 -18.07918,2.10741 -26.96887,3.994 -6.96095,1.47727 -13.88872,3.26354 -20.5676,5.7191 -7.0612,2.59612 -13.90166,5.83391 -20.48295,9.47904 -8.07529,4.4726 -15.91977,9.44885 -23.1922,15.13447 -7.94774,6.21358 -15.34294,13.17568 -22.16698,20.60587 -6.55655,7.13895 -12.64927,14.76643 -17.91859,22.90198 -4.60743,7.11362 -8.46903,14.72253 -11.86695,22.48694 -3.0933,7.06834 -5.52362,14.42575 -7.70721,21.82588 -1.7184,5.82364 -3.14284,11.74388 -4.23091,17.71747 -1.20419,6.61111 -2.10924,13.29343 -2.53209,20 -0.10488,1.66336 0,5 0,5 l 0.05,175 z"
           id="path4910-5" />
        <g
           aria-label="D"
           transform="matrix(1.1733132,0,0,1.25338,-138.26205,-132.0747)"
           style="font-style:normal;font-weight:normal;font-size:81.58670807px;line-height:1.25;font-family:sans-serif;letter-spacing:0px;word-spacing:0px;display:inline;fill:#ffffff;fill-opacity:1;stroke:none;stroke-width:2.03966761"
           id="text4898-5">
          <path
             d="m 780.91856,606.42 c 34.1596,0 57.85557,3.41333 83.52194,14.62573 18.12147,7.91639 33.03529,20.03132 46.33306,35.67538 20.05668,23.59553 31.16269,55.19032 32.07959,85.33214 0.85772,28.19634 -8.09052,58.01488 -25.10792,81.29369 -15.33389,20.97586 -39.62619,36.62169 -64.74694,46.26696 -21.08359,8.09517 -51.067,8.0726 -67.8183,8.0726 H 661.59833 V 718.11797 H 716.997 v 107.70875 h 72.44443 c 30.86645,0.72535 54.04775,-7.25936 72.44442,-23.93527 16.1614,-14.64972 25.47803,-37.82959 24.49836,-58.86907 -1.1615,-24.94445 -14.93926,-51.17308 -35.42262,-67.16471 -17.51213,-13.67196 -33.78313,-17.5779 -65.7816,-17.5779 H 661.59833 V 606.42 Z"
             style="font-style:normal;font-variant:normal;font-weight:normal;font-stretch:normal;font-size:391.61621094px;font-family:android;-inkscape-font-specification:'android, Normal';font-variant-ligatures:normal;font-variant-caps:normal;font-variant-numeric:normal;font-feature-settings:normal;text-align:start;writing-mode:lr-tb;text-anchor:start;fill:#ffffff;fill-opacity:1;stroke-width:2.03269672"
             id="path4900-9"
             inkscape:connector-curvature="0"
             sodipodi:nodetypes="sasaaascccccaaasccs" />
        </g>
      </g>
    </g>
  </g>
  <g
     inkscape:groupmode="layer"
     id="layer20"
     inkscape:label="Lettres Bis Blanc"
     style="display:inline">
    <g
       id="g4875"
       style="display:inline;fill:#ffffff;fill-opacity:1">
      <path
         sodipodi:nodetypes="sccsasasccsasasccccc"
         d="m 1190,120 h 160 v 70 h -170 c -37.4054,0 -48.3801,8.76663 -64.3113,25.42754 C 1097.5189,234.42956 1090.0633,264.84395 1090,290 c -0.063,25.15605 7.0808,56.70314 25.6527,75.88936 C 1131.5836,382.34721 1152.7465,390 1180,390 h 170 v 70 h -161.4834 c -45.2131,0 -92.5065,-12.91959 -123.4055,-43.74068 C 1033.4692,384.69715 1021.1534,331.02107 1020,290 c -1.1534,-41.02107 14.4239,-94.20758 46.0852,-125.62522 C 1097.2281,133.47155 1142.8147,120 1190,120 Z m -30,140 h 190 v 60 h -190 z"
         style="font-style:normal;font-variant:normal;font-weight:normal;font-stretch:normal;font-size:medium;line-height:1.25;font-family:android;-inkscape-font-specification:android;letter-spacing:0px;word-spacing:0px;fill:#ffffff;fill-opacity:1;stroke:none;stroke-width:2.50904131"
         id="path4865"
         inkscape:connector-curvature="0" />
      <path
         sodipodi:nodetypes="ccccccccccccc"
         d="m 1410,120 h 80 l 80,110 80,-110 h 90 l -120,170 120,170 h -90 l -80,-110 -80,110 h -80 l 110,-170 z"
         style="font-style:normal;font-variant:normal;font-weight:normal;font-stretch:normal;font-size:medium;line-height:1.25;font-family:android;-inkscape-font-specification:android;letter-spacing:0px;word-spacing:0px;fill:#ffffff;fill-opacity:1;stroke:none;stroke-width:2.54939246"
         id="path4867"
         inkscape:connector-curvature="0" />
      <path
         sodipodi:nodetypes="ccccccccc"
         d="m 1800,120 h 320 v 70 h -120 v 270 h -70 V 190 h -130 z"
         style="font-style:normal;font-variant:normal;font-weight:normal;font-stretch:normal;font-size:medium;line-height:1.25;font-family:android;-inkscape-font-specification:android;letter-spacing:0px;word-spacing:0px;fill:#ffffff;fill-opacity:1;stroke:none;stroke-width:2.60488892"
         id="path4869"
         inkscape:connector-curvature="0" />
      <path
         d="m 1184.9591,620.57593 h 2.2853 q 75.8752,0 129.5831,64.18294 34.7376,48.13719 34.7376,104.7692 v 2.35965 q 0,78.34095 -63.5336,133.08521 -46.1657,35.395 -101.2443,35.395 h -2.2853 q -75.4178,0 -129.1252,-63.71101 -18.7411,-27.13614 -26.2825,-49.78897 -8.9131,-28.31598 -8.9131,-55.45216 v -2.35965 q 0,-76.92513 61.4791,-131.6694 41.5926,-30.67568 75.8743,-34.45113 10.5128,-2.35968 27.4246,-2.35968 z M 1086,790 q 0,44.36172 33.5963,77.86898 29.9393,26.42827 62.8484,26.42827 h 6.3997 q 26.5107,0 53.9348,-18.64136 28.3399,-21.47296 38.3966,-54.74426 3.1987,-8.73077 4.5705,-29.96777 0,-43.41786 -32.6823,-76.68916 -30.624,-28.08005 -67.1908,-28.08005 -42.7374,0 -75.8757,36.81082 -13.9407,18.87734 -17.5971,32.09147 Q 1086,773.48233 1086,790 Z"
         style="font-style:normal;font-variant:normal;font-weight:normal;font-stretch:normal;font-size:medium;line-height:1.25;font-family:android;-inkscape-font-specification:android;letter-spacing:0px;word-spacing:0px;fill:#ffffff;fill-opacity:1;stroke:none;stroke-width:2.4770577"
         id="path4871"
         inkscape:connector-curvature="0" />
      <path
         sodipodi:nodetypes="cccccaasccsaaasaaasccsaa"
         d="m 1540,780 h 70 v 180 h -70 z m 35.3933,-89.32584 C 1548.428,690.62616 1517.8352,699.77542 1500,720 c -18.1377,20.56763 -20,39.35118 -20,79.8 V 960 h -70.115 L 1410,799.8 c 0.029,-40.07009 0.3209,-54.8003 10,-79.8 7.771,-20.07119 21.7705,-37.77307 37.2079,-52.77062 13.572,-13.18523 29.928,-23.90249 47.3198,-31.35718 22.0934,-9.46991 45.2747,-16.06465 70.3,-16.06465 25.1784,0 48.3749,6.54864 70.5297,16.06465 17.3284,7.44294 33.5525,18.23001 47.0931,31.35718 15.5004,15.02716 29.7114,32.6549 37.5495,52.77062 9.733,24.97878 10,39.68727 10,79.8 V 960 h -70 V 799.8 c 0,-40.42714 -1.8989,-59.20014 -20,-79.8 -17.638,-20.07283 -47.8856,-29.27831 -74.6067,-29.32584 z"
         style="font-style:normal;font-variant:normal;font-weight:normal;font-stretch:normal;font-size:medium;line-height:1.25;font-family:android;-inkscape-font-specification:android;letter-spacing:0px;word-spacing:0px;fill:#ffffff;fill-opacity:1;stroke:none;stroke-width:2.47291255"
         id="path4873"
         inkscape:connector-curvature="0" />
    </g>
  </g>
</svg>
