<?xml version="1.0" encoding="UTF-8" standalone="no"?>
<!-- Created with Inkscape (http://www.inkscape.org/) -->

<svg
   xmlns:osb="http://www.openswatchbook.org/uri/2009/osb"
   xmlns:dc="http://purl.org/dc/elements/1.1/"
   xmlns:cc="http://creativecommons.org/ns#"
   xmlns:rdf="http://www.w3.org/1999/02/22-rdf-syntax-ns#"
   xmlns:svg="http://www.w3.org/2000/svg"
   xmlns="http://www.w3.org/2000/svg"
   xmlns:sodipodi="http://sodipodi.sourceforge.net/DTD/sodipodi-0.dtd"
   xmlns:inkscape="http://www.inkscape.org/namespaces/inkscape"
   version="1.1"
   id="svg2"
   width="2240"
   height="1080"
   viewBox="0 0 2240 1080"
   sodipodi:docname="_NextDom_Wide.svg"
   inkscape:export-filename="C:\Users\cyril\Google Drive\Jeedom\Dev\NextDom\NextDom_BlueWhiteBlack.png"
   inkscape:export-xdpi="96"
   inkscape:export-ydpi="96"
   inkscape:version="0.92.3 (2405546, 2018-03-11)">
  <metadata
     id="metadata8">
    <rdf:RDF>
      <cc:Work
         rdf:about="">
        <dc:format>image/svg+xml</dc:format>
        <dc:type
           rdf:resource="http://purl.org/dc/dcmitype/StillImage" />
        <dc:title />
      </cc:Work>
    </rdf:RDF>
  </metadata>
  <defs
     id="defs6">
    <linearGradient
       id="linearGradient2401"
       osb:paint="solid">
      <stop
         style="stop-color:#33b8cc;stop-opacity:1;"
         offset="0"
         id="stop2399" />
    </linearGradient>
    <linearGradient
       id="linearGradient931"
       osb:paint="solid">
      <stop
         style="stop-color:#33b8cc;stop-opacity:1;"
         offset="0"
         id="stop929" />
    </linearGradient>
  </defs>
  <sodipodi:namedview
     pagecolor="#ffffff"
     bordercolor="#666666"
     borderopacity="1"
     objecttolerance="10"
     gridtolerance="10"
     guidetolerance="10"
     inkscape:pageopacity="0"
     inkscape:pageshadow="2"
     inkscape:window-width="1920"
     inkscape:window-height="1057"
     id="namedview4"
     showgrid="true"
     inkscape:zoom="0.42440064"
     inkscape:cx="643.6998"
     inkscape:cy="740.01338"
     inkscape:window-x="-8"
     inkscape:window-y="-8"
     inkscape:window-maximized="1"
     inkscape:current-layer="layer22"
     showguides="false">
    <inkscape:grid
       type="xygrid"
       id="grid3717" />
  </sodipodi:namedview>
  <g
     inkscape:groupmode="layer"
     id="layer21"
     inkscape:label="Fond Bleu"
     style="display:none">
    <path
       inkscape:connector-curvature="0"
       id="path5150"
       d="m 40,1060 h -1 c -4.7726,0 -9.6253,-2.6253 -13,-6 -3.3747,-3.3747 -6,-8.2274 -6,-13 V 1040 39.99996 l -0.027,-1.04275 c -0.12009,-4.63793 2.8035,-9.72807 6.0197,-12.94428 3.215,-3.21499 8.6545,-5.8552 13.02509,-5.98402 L 40,19.99991 c 225.56903,-8.5e-5 1034.6856,6.8e-5 1020,9e-5 v 1040 z"
       style="display:inline;fill:#32b7cb"
       sodipodi:nodetypes="csasccssscccc" />
    <path
       inkscape:connector-curvature="0"
       id="path5150-8"
       d="m 1060,1060 c -4.0852,-344.17005 -0.988,-693.94707 -0.982,-1039.97104 333.6598,-0.05812 807.3217,-0.029 1140.9822,-0.029 l 1.007,-0.0159 c 4.7903,-0.0757 9.6437,2.61587 13.0169,5.99928 3.3728,3.38301 5.8775,8.28018 5.9592,13.03351 l 0.017,0.98311 V 1040 v 1.0269 c 0.01,4.7726 -2.6479,9.6018 -6.0182,12.9731 -3.358,3.359 -8.1514,6 -12.924,6 h -1.0578 z"
       style="display:inline;fill:#32b7cb"
       sodipodi:nodetypes="cccsasccsascc" />
  </g>
  <g
     inkscape:groupmode="layer"
     id="layer22"
     inkscape:label="Fond Alpha Complet"
     style="display:inline">
    <path
       style="display:inline;fill:#32b7cb"
       d="m 2201.9883,19.955078 -1.0059,0.01563 c -333.3732,0 -806.3868,-0.02862 -1140,0.0293 v -0.0293 c 14.6856,-2e-5 -794.43098,-9e-5 -1019.999978,0 L 40,20 c -4.37059,0.12882 -9.810391,2.769385 -13.025391,5.984375 -3.2162,3.21621 -6.139621,8.305429 -6.019531,12.943359 l 0.02734,1.042969 v 999.999997 1 c 0,4.7726 2.6253,9.6253 6,13 3.3747,3.3747 8.2274,6 13,6 h 1 1019.999982 1140 1.0586 c 4.7726,0 9.5658,-2.641 12.9238,-6 3.3703,-3.3713 6.0276,-8.2001 6.0176,-12.9727 v -1.0273 -999.999997 l -0.018,-0.982422 c -0.082,-4.75333 -2.5861,-9.650193 -5.9589,-13.033203 -3.3732,-3.38341 -8.2273,-6.0757 -13.0176,-6 z M 270,120 h 150 v 70 h -40 v 80 L 560,120 v 90 L 210,500 H 340 V 960 H 120 V 890 H 270 V 570 H 120 V 485 L 310,330 V 190 h -40 z m 350,0 h 70 l -70,70 z m 570,0 h 160 v 70 h -170 c -37.4054,0 -48.3793,8.76682 -64.3105,25.42773 C 1097.5197,234.42975 1090.0633,264.84395 1090,290 c -0.063,25.15605 7.0804,56.70245 25.6523,75.88867 C 1131.5832,382.34652 1152.7465,390 1180,390 h 170 v 70 h -161.4844 c -45.2131,0 -92.5053,-12.91914 -123.4043,-43.74023 C 1033.4694,384.6976 1021.1534,331.02107 1020,290 c -1.1534,-41.02107 14.4246,-94.20736 46.0859,-125.625 C 1097.2288,133.47177 1142.8147,120 1190,120 Z m 220,0 h 80 l 80,110 80,-110 h 90 l -120,170 120,170 h -90 l -80,-110 -80,110 h -80 l 110,-170 z m 390,0 h 320 v 70 h -120 v 270 h -70 V 190 h -130 z m -1008.70117,0.0547 c 8.55439,-0.0465 17.12683,0.8698 25.59179,2.0957 8.79203,1.27327 17.52154,3.18492 26.01563,5.78711 7.35505,2.25324 14.54772,5.10925 21.46875,8.4668 6.82347,3.31022 13.38763,7.1864 19.65625,11.45508 6.82895,4.65023 13.31392,9.83106 19.45898,15.35351 5.69518,5.11815 11.04085,10.64091 16.06641,16.41797 3.87775,4.45761 7.53072,9.13008 10.83008,14.03125 3.57817,5.31535 6.85898,10.85321 9.67773,16.60742 4.01406,8.19432 7.4407,16.7015 10.23828,25.38672 2.91222,9.04112 5.12142,18.32554 6.77149,27.67969 C 958.62747,272.1412 959.9809,282.01257 960,290 V 460 H 890 V 290 c 0.0197,-8.71499 -1.25554,-18.22223 -3.73047,-26.94531 -1.95195,-6.8798 -5.20616,-13.36484 -8.65625,-19.62891 -3.10544,-5.63831 -6.72543,-11.02173 -10.76758,-16.03125 -3.87903,-4.80737 -8.22465,-9.25922 -12.85351,-13.34961 -4.73008,-4.17983 -9.7256,-8.13461 -15.1543,-11.35547 -6.0312,-3.57832 -12.42298,-6.71722 -19.14062,-8.73047 -7.58768,-2.27399 -15.56079,-3.50425 -23.48047,-3.65429 -6.85203,-0.12981 -13.73615,0.88267 -20.42188,2.38867 -6.36899,1.43464 -12.63489,3.51977 -18.54883,6.28516 -5.62777,2.63157 -10.87055,6.0771 -15.9082,9.71289 -4.56353,3.2936 -8.91467,6.9192 -12.88867,10.90429 -4.27316,4.28508 -8.30998,8.87121 -11.6875,13.89258 -3.55915,5.2914 -6.49408,11.02737 -8.91797,16.92578 -2.56557,6.2432 -4.46783,12.77562 -5.88477,19.375 C 700.88581,274.78735 700,285 700,285 V 460 H 630.05078 L 630,285 c 0,0 -0.10488,-3.33664 0,-5 0.42285,-6.70657 1.32706,-13.38889 2.53125,-20 1.08807,-5.97359 2.51402,-11.89316 4.23242,-17.7168 2.18359,-7.40013 4.61373,-14.75783 7.70703,-21.82617 3.39792,-7.76441 7.25976,-15.37466 11.86719,-22.48828 5.26932,-8.13555 11.36142,-15.76144 17.91797,-22.90039 6.82404,-7.43019 14.21827,-14.39384 22.16602,-20.60742 7.27242,-5.68562 15.11806,-10.66022 23.19335,-15.13282 6.58129,-3.64512 13.42123,-6.88434 20.48243,-9.48046 6.67888,-2.45556 13.60741,-4.24148 20.56836,-5.71875 8.88969,-1.88659 17.88804,-3.63849 26.96875,-3.99414 1.22096,-0.0478 2.442,-0.0734 3.66406,-0.0801 z M 1160,260 h 190 v 60 h -190 z m 414.8281,359.80664 c 25.1784,0 48.3745,6.5504 70.5293,16.06641 17.3284,7.44294 33.5532,18.2283 47.0938,31.35547 15.5004,15.02716 29.7107,32.65576 37.5488,52.77148 9.733,24.97878 10,39.68805 10,79.80078 V 960 h -70 V 799.80078 c 0,-40.42714 -1.8989,-59.20092 -20,-79.80078 -17.638,-20.07283 -47.8863,-29.27864 -74.6074,-29.32617 -26.9653,-0.048 -57.5574,9.10159 -75.3926,29.32617 -18.1377,20.56763 -20,39.35196 -20,79.80078 V 960 h -70.1152 L 1410,799.80078 c 0.029,-40.07009 0.3209,-54.80108 10,-79.80078 7.771,-20.07119 21.7696,-37.77393 37.207,-52.77148 13.572,-13.18523 29.9285,-23.90078 47.3203,-31.35547 22.0934,-9.46991 45.2755,-16.06641 70.3008,-16.06641 z M 630,620 h 140 c 40.07991,0 67.88336,4.27863 97.99805,18.33203 21.26216,9.92224 38.76083,25.10689 54.36328,44.71485 C 945.8941,712.62104 958.92419,752.22085 960,790 c 1.00637,35.34073 -9.49224,72.71538 -29.45898,101.89258 -17.99145,26.29072 -46.49424,45.90104 -75.96875,57.99023 C 829.83462,960.02913 794.65452,960 775,960 H 630 V 760 h 65 v 135 h 85 c 36.21601,0.90914 63.41495,-9.09875 85,-30 18.96239,-18.36167 29.8936,-47.4147 28.74414,-73.78516 -1.3628,-31.26487 -17.52911,-64.14 -41.5625,-84.18359 C 831.63442,689.89509 812.54422,685 775,685 H 630 Z m 1170,0 h 100 v 90 c 0.1932,0.75004 32.3592,37.40513 33.877,38.39648 12.6926,-2.79258 27.1188,-5.98746 39.2089,-1.01171 12.2802,7.53911 21.7896,14.95962 24.5508,26.42578 l 7.2656,-0.0859 -0.021,-3.98242 c -0.03,-5.56607 2.6464,-16.49486 5.6699,-23.15625 4.9361,-10.87529 13.9423,-20.76636 24.3789,-26.77539 29.3147,-16.87834 70.5206,0.16877 80.6894,33.38281 2.9487,9.63117 3.2517,16.6457 1.1504,26.67578 -5.6528,26.98257 -28.89,46.72258 -54.4687,46.26953 -16.0829,-0.2849 -32.465,-7.73466 -43.0196,-19.5625 -3.0254,-3.39038 -6.357,-7.73539 -7.4023,-9.65429 l -1.9004,-3.48829 c 0,0 0.367,-0.90044 -10.7031,1.95899 -0.2526,0.11645 -0.43,0.17244 -0.6563,0.26758 -0.028,0.91265 -0.231,2.15741 -0.6894,3.82812 -0.8683,3.16474 -3.2635,8.20575 -5.5996,11.78125 l -4.084,6.24805 L 2035,895 l 15,-15 65,80 h -145 l 50,-50 -45.9531,-77.39453 -2.2481,-3.83594 -3.7265,0.94727 c -5.7041,1.45008 -13.8645,1.32773 -20.461,-0.3086 l -5.9629,-1.47851 -36.5683,44.34961 c -0.2615,0.38244 0.6484,2.83366 2.0215,5.44922 18.8143,35.82666 -8.919,82.35593 -49.1289,82.42382 -20.9601,0.0354 -42.3081,-12.80317 -51.9434,-31.23632 -15.9446,-30.50376 2.6985,-71.36802 36.5019,-80.00586 14.4227,-3.68541 30.5195,-1.07359 43.8438,7.11132 2.1713,1.33379 4.1884,2.36284 4.4824,2.28711 0.6806,-0.17527 32.2966,-39.62457 33.0684,-40.84765 0.3676,-0.58232 -0.04,-1.73765 -1.125,-3.19532 -9.7522,-16.26534 -11.2396,-30.21742 -4.7735,-45.77734 L 1880,725 h -80 z m -615.041,0.57617 h 2.2851 c 50.5835,0 93.7788,21.39497 129.584,64.1836 23.1584,32.09146 34.7364,67.0129 34.7364,104.76757 v 2.36133 c 0,52.2273 -21.1775,96.58781 -63.5333,133.08399 -30.7766,23.59666 -64.525,35.39453 -101.2441,35.39453 h -2.2851 c -50.2786,0 -93.3201,-21.23693 -129.125,-63.71094 -12.4941,-18.09076 -21.2559,-34.68718 -26.2832,-49.78906 -5.9426,-18.87732 -8.9122,-37.36039 -8.9122,-55.45117 v -2.35938 c 0,-51.28342 20.4925,-95.17374 61.4786,-131.66992 27.7284,-20.45045 53.0205,-31.93421 75.875,-34.45117 7.0085,-1.57312 16.1493,-2.35938 27.4238,-2.35938 z M 1820,640 v 65 h 60 v -65 z m -634.127,46.17383 c -28.4916,0 -53.7828,12.27195 -75.875,36.8125 -9.2938,12.58489 -15.16,23.28042 -17.5976,32.08984 C 1088.1335,767.34643 1086,778.98822 1086,790 c 0,29.57448 11.1982,55.53097 33.5957,77.86914 19.9595,17.61885 40.9102,26.42773 62.8496,26.42774 h 6.3985 c 17.6733,0 35.6528,-6.21306 53.9355,-18.64063 18.8933,-14.31531 31.692,-32.56327 38.3965,-54.74414 2.1324,-5.82051 3.6558,-15.81075 4.5703,-29.96875 0,-28.94524 -10.8934,-54.50859 -32.6816,-76.68945 -20.416,-18.72004 -42.8136,-28.08008 -67.1915,-28.08008 z m 876.8575,46.49609 c -14.6504,-0.0816 -29.6779,7.88817 -35.7285,22.35156 -3.0081,7.1904 -3.2517,14.27553 -0.8165,23.73047 1.5731,6.10766 2.7252,8.93448 5.1133,12.55274 10.0757,15.26581 29.7862,19.77217 47.6621,10.89453 13.8133,-6.86009 20.9248,-19.8758 19.3672,-35.44531 -0.7785,-7.78193 -4.2697,-16.31057 -9.0527,-22.10938 -6.6751,-8.09388 -16.521,-11.91876 -26.5449,-11.97461 z M 1540,780 h 70 v 180 h -70 z m 317.8809,86.54492 c -2.9745,0.0366 -5.7921,0.56354 -10.7286,1.86914 -9.0975,2.40616 -14.3334,5.44153 -19.4531,11.2793 -13.9502,15.90681 -8.7882,45.22474 9.9063,56.26172 10.0334,5.9236 22.6884,6.30613 34.7773,1.04883 12.3914,-5.38892 20.0702,-15.75153 21.3399,-28.79688 0.7094,-7.28959 -2.5107,-19.84445 -6.7227,-26.20703 -5.8123,-8.77966 -15.5594,-14.529 -26.0078,-15.33984 -1.1102,-0.0861 -2.1198,-0.12744 -3.1113,-0.11524 z M 2050,910 l -35,35 h 65 z"
       id="path5150-6"
       inkscape:connector-curvature="0" />
  </g>
  <g
     inkscape:groupmode="layer"
     id="layer6"
     inkscape:label="Logo Blanc"
     style="display:inline">
    <g
       id="g954"
       transform="matrix(1.2935048,-0.3331508,0.3331508,1.2935048,-839.35746,384.53131)"
       style="display:inline;fill:#ffffff;fill-opacity:1">
      <path
         style="fill:#ffffff;fill-opacity:1;stroke-width:0.60950065"
         d="m 1929.3282,941.80239 45.5864,-26.91357 -18.8648,-64.69223 -0.9137,-3.19988 -2.8781,-0.009 c -4.4062,-0.0138 -10.3,-1.62732 -14.7769,-4.04541 l -4.0464,-2.18555 -34.7936,25.32516 c -0.261,0.22844 -0.059,2.17662 0.4481,4.3293 6.9505,29.4875 -21.8444,58.04141 -51.0093,50.58228 -15.2027,-3.88816 -28.2833,-17.18183 -31.8269,-32.34505 -5.8639,-25.09254 15.2838,-51.23724 41.4042,-51.18761 11.1446,0.0212 22.3269,4.91914 30.4587,13.34124 1.3251,1.37243 2.5952,2.49533 2.8225,2.49533 0.5261,0 30.8135,-22.69694 31.6015,-23.43954 0.3752,-0.35355 0.2962,-1.26657 -0.2185,-2.52604 -4.0331,-13.61338 -2.5063,-24.00602 5.0871,-34.07956 0.8945,-1.19392 0,0 0,0 l -19.4491,-38.63048 -58,-14.9383 19.6065,-76.12501 72.5,18.67286 -16.8055,65.25002 c 0,0.57985 16.4758,33.16175 17.3911,34.1639 9.7236,0.34545 20.7792,0.7225 28.6154,6.58748 7.4954,7.75893 13.0039,14.91486 12.8647,23.74342 l 5.2844,1.29333 0.7278,-2.89038 c 1.0176,-4.041 4.9983,-11.46525 8.4342,-15.73019 5.6094,-6.96288 13.9859,-12.45262 22.6745,-14.86036 24.4048,-6.76291 51.0967,13.29219 52.2671,39.27119 0.3394,7.53321 -0.7512,12.67493 -4.1475,19.55438 -9.1367,18.50683 -29.6696,28.47846 -48.1296,23.37371 -11.6069,-3.20969 -22.0935,-11.66987 -27.5369,-22.21588 -1.5604,-3.02297 -3.1638,-6.79425 -3.5633,-8.38063 l -0.7263,-2.88429 c 0,0 0.4341,-0.58448 -8.1256,-0.57848 -8.5747,1.55937 3.4957,-6.42986 -1.7402,2.71785 -1.2205,2.13229 -3.8992,5.33937 -6.2605,7.4954 l -4.1272,3.76845 19.4281,64.90449 13.6759,-8.07407 32.1867,70.13738 z m 67.3365,-21.31171 -31.9106,18.8395 47.1251,12.13736 z m -133.8144,-13.58873 c 9.9901,-1.59312 17.4922,-7.67168 20.8487,-16.89247 1.8755,-5.15248 1.8846,-14.85621 0.019,-20.25558 -2.5745,-7.45057 -8.5679,-13.43868 -15.9916,-15.97756 -3.1553,-1.07907 -5.2647,-1.34645 -10.3616,-1.31339 -7.045,0.0457 -11.4077,1.26908 -16.2096,4.54546 -13.0841,8.92755 -14.816,31.14744 -3.3234,42.64005 6.1681,6.16813 15.2725,8.8077 25.0186,7.25349 z m 174.9409,-59.15927 c 11.2956,-2.39423 18.8822,-10.50277 20.6602,-22.08152 0.8887,-5.78727 -0.05,-12.62191 -2.4349,-17.71918 -8.1922,-17.51261 -35.1501,-19.86289 -47.0869,-4.1052 -3.5235,4.65135 -5.0231,9.7419 -5.0231,17.05145 0,4.72179 0.3071,6.9876 1.3628,10.05676 4.4543,12.94913 17.9042,19.89605 32.5219,16.79769 z m -113.9598,-154.74592 -43.5001,-11.20372 -12.1373,47.12501 43.5,11.20372 z"
         id="path952"
         inkscape:connector-curvature="0"
         sodipodi:nodetypes="cccccccccccccscccccccccccccsssccccccccccccccccccccccscccccccssccccccc" />
    </g>
  </g>
  <g
     inkscape:groupmode="layer"
     id="layer16"
     inkscape:label="Logo Halo 2"
     style="display:none">
    <g
       style="display:inline;fill:#33b8cc;fill-opacity:1"
       transform="matrix(1.2935048,-0.3331508,0.3331508,1.2935048,-829.3575,394.53131)"
       id="g948">
      <path
         sodipodi:nodetypes="cccccccccccccscccccccccccccsssccccccccccccccccccccccscccccccssccccccc"
         inkscape:connector-curvature="0"
         id="path946"
         d="m 1929.3282,941.80239 45.5864,-26.91357 -18.8648,-64.69223 -0.9137,-3.19988 -2.8781,-0.009 c -4.4062,-0.0138 -10.3,-1.62732 -14.7769,-4.04541 l -4.0464,-2.18555 -34.7936,25.32516 c -0.261,0.22844 -0.059,2.17662 0.4481,4.3293 6.9505,29.4875 -21.8444,58.04141 -51.0093,50.58228 -15.2027,-3.88816 -28.2833,-17.18183 -31.8269,-32.34505 -5.8639,-25.09254 15.2838,-51.23724 41.4042,-51.18761 11.1446,0.0212 22.3269,4.91914 30.4587,13.34124 1.3251,1.37243 2.5952,2.49533 2.8225,2.49533 0.5261,0 30.8135,-22.69694 31.6015,-23.43954 0.3752,-0.35355 0.2962,-1.26657 -0.2185,-2.52604 -4.0331,-13.61338 -2.5063,-24.00602 5.0871,-34.07956 0.8945,-1.19392 0,0 0,0 l -19.4491,-38.63048 -58,-14.9383 19.6065,-76.12501 72.5,18.67286 -16.8055,65.25002 c 0,0.57985 16.4758,33.16175 17.3911,34.1639 9.7236,0.34545 20.7792,0.7225 28.6154,6.58748 7.4954,7.75893 13.0039,14.91486 12.8647,23.74342 l 5.2844,1.29333 0.7278,-2.89038 c 1.0176,-4.041 4.9983,-11.46525 8.4342,-15.73019 5.6094,-6.96288 13.9859,-12.45262 22.6745,-14.86036 24.4048,-6.76291 51.0967,13.29219 52.2671,39.27119 0.3394,7.53321 -0.7512,12.67493 -4.1475,19.55438 -9.1367,18.50683 -29.6696,28.47846 -48.1296,23.37371 -11.6069,-3.20969 -22.0935,-11.66987 -27.5369,-22.21588 -1.5604,-3.02297 -3.1638,-6.79425 -3.5633,-8.38063 l -0.7263,-2.88429 c 0,0 0.4341,-0.58448 -8.1256,-0.57848 -8.5747,1.55937 3.4957,-6.42986 -1.7402,2.71785 -1.2205,2.13229 -3.8992,5.33937 -6.2605,7.4954 l -4.1272,3.76845 19.4281,64.90449 13.6759,-8.07407 32.1867,70.13738 z m 67.3365,-21.31171 -31.9106,18.8395 47.1251,12.13736 z m -133.8144,-13.58873 c 9.9901,-1.59312 17.4922,-7.67168 20.8487,-16.89247 1.8755,-5.15248 1.8846,-14.85621 0.019,-20.25558 -2.5745,-7.45057 -8.5679,-13.43868 -15.9916,-15.97756 -3.1553,-1.07907 -5.2647,-1.34645 -10.3616,-1.31339 -7.045,0.0457 -11.4077,1.26908 -16.2096,4.54546 -13.0841,8.92755 -14.816,31.14744 -3.3234,42.64005 6.1681,6.16813 15.2725,8.8077 25.0186,7.25349 z m 174.9409,-59.15927 c 11.2956,-2.39423 18.8822,-10.50277 20.6602,-22.08152 0.8887,-5.78727 -0.05,-12.62191 -2.4349,-17.71918 -8.1922,-17.51261 -35.1501,-19.86289 -47.0869,-4.1052 -3.5235,4.65135 -5.0231,9.7419 -5.0231,17.05145 0,4.72179 0.3071,6.9876 1.3628,10.05676 4.4543,12.94913 17.9042,19.89605 32.5219,16.79769 z m -113.9598,-154.74592 -43.5001,-11.20372 -12.1373,47.12501 43.5,11.20372 z"
         style="fill:#33b8cc;fill-opacity:1;stroke-width:0.60950065" />
    </g>
  </g>
  <g
     inkscape:groupmode="layer"
     id="layer15"
     inkscape:label="Logo Halo 1"
     style="display:none">
    <g
       id="g942"
       transform="matrix(1.2935048,-0.3331508,0.3331508,1.2935048,-839.35746,384.53131)"
       style="display:inline;fill:#000000;fill-opacity:1">
      <path
         style="fill:#000000;fill-opacity:1;stroke-width:0.60950065"
         d="m 1929.3282,941.80239 45.5864,-26.91357 -18.8648,-64.69223 -0.9137,-3.19988 -2.8781,-0.009 c -4.4062,-0.0138 -10.3,-1.62732 -14.7769,-4.04541 l -4.0464,-2.18555 -34.7936,25.32516 c -0.261,0.22844 -0.059,2.17662 0.4481,4.3293 6.9505,29.4875 -21.8444,58.04141 -51.0093,50.58228 -15.2027,-3.88816 -28.2833,-17.18183 -31.8269,-32.34505 -5.8639,-25.09254 15.2838,-51.23724 41.4042,-51.18761 11.1446,0.0212 22.3269,4.91914 30.4587,13.34124 1.3251,1.37243 2.5952,2.49533 2.8225,2.49533 0.5261,0 30.8135,-22.69694 31.6015,-23.43954 0.3752,-0.35355 0.2962,-1.26657 -0.2185,-2.52604 -4.0331,-13.61338 -2.5063,-24.00602 5.0871,-34.07956 0.8945,-1.19392 0,0 0,0 l -19.4491,-38.63048 -58,-14.9383 19.6065,-76.12501 72.5,18.67286 -16.8055,65.25002 c 0,0.57985 16.4758,33.16175 17.3911,34.1639 9.7236,0.34545 20.7792,0.7225 28.6154,6.58748 7.4954,7.75893 13.0039,14.91486 12.8647,23.74342 l 5.2844,1.29333 0.7278,-2.89038 c 1.0176,-4.041 4.9983,-11.46525 8.4342,-15.73019 5.6094,-6.96288 13.9859,-12.45262 22.6745,-14.86036 24.4048,-6.76291 51.0967,13.29219 52.2671,39.27119 0.3394,7.53321 -0.7512,12.67493 -4.1475,19.55438 -9.1367,18.50683 -29.6696,28.47846 -48.1296,23.37371 -11.6069,-3.20969 -22.0935,-11.66987 -27.5369,-22.21588 -1.5604,-3.02297 -3.1638,-6.79425 -3.5633,-8.38063 l -0.7263,-2.88429 c 0,0 0.4341,-0.58448 -8.1256,-0.57848 -8.5747,1.55937 3.4957,-6.42986 -1.7402,2.71785 -1.2205,2.13229 -3.8992,5.33937 -6.2605,7.4954 l -4.1272,3.76845 19.4281,64.90449 13.6759,-8.07407 32.1867,70.13738 z m 67.3365,-21.31171 -31.9106,18.8395 47.1251,12.13736 z m -133.8144,-13.58873 c 9.9901,-1.59312 17.4922,-7.67168 20.8487,-16.89247 1.8755,-5.15248 1.8846,-14.85621 0.019,-20.25558 -2.5745,-7.45057 -8.5679,-13.43868 -15.9916,-15.97756 -3.1553,-1.07907 -5.2647,-1.34645 -10.3616,-1.31339 -7.045,0.0457 -11.4077,1.26908 -16.2096,4.54546 -13.0841,8.92755 -14.816,31.14744 -3.3234,42.64005 6.1681,6.16813 15.2725,8.8077 25.0186,7.25349 z m 174.9409,-59.15927 c 11.2956,-2.39423 18.8822,-10.50277 20.6602,-22.08152 0.8887,-5.78727 -0.05,-12.62191 -2.4349,-17.71918 -8.1922,-17.51261 -35.1501,-19.86289 -47.0869,-4.1052 -3.5235,4.65135 -5.0231,9.7419 -5.0231,17.05145 0,4.72179 0.3071,6.9876 1.3628,10.05676 4.4543,12.94913 17.9042,19.89605 32.5219,16.79769 z m -113.9598,-154.74592 -43.5001,-11.20372 -12.1373,47.12501 43.5,11.20372 z"
         id="path940"
         inkscape:connector-curvature="0"
         sodipodi:nodetypes="cccccccccccccscccccccccccccsssccccccccccccccccccccccscccccccssccccccc" />
    </g>
  </g>
  <g
     inkscape:groupmode="layer"
     id="layer1"
     inkscape:label="Logo Noir"
     style="display:none">
    <g
       style="display:inline;fill:#404040;fill-opacity:1"
       transform="matrix(1.2935048,-0.3331508,0.3331508,1.2935048,-839.35746,384.53131)"
       id="g936">
      <path
         sodipodi:nodetypes="cccccccccccccscccccccccccccsssccccccccccccccccccccccscccccccssccccccc"
         inkscape:connector-curvature="0"
         id="path934"
         d="m 1929.3282,941.80239 45.5864,-26.91357 -18.8648,-64.69223 -0.9137,-3.19988 -2.8781,-0.009 c -4.4062,-0.0138 -10.3,-1.62732 -14.7769,-4.04541 l -4.0464,-2.18555 -34.7936,25.32516 c -0.261,0.22844 -0.059,2.17662 0.4481,4.3293 6.9505,29.4875 -21.8444,58.04141 -51.0093,50.58228 -15.2027,-3.88816 -28.2833,-17.18183 -31.8269,-32.34505 -5.8639,-25.09254 15.2838,-51.23724 41.4042,-51.18761 11.1446,0.0212 22.3269,4.91914 30.4587,13.34124 1.3251,1.37243 2.5952,2.49533 2.8225,2.49533 0.5261,0 30.8135,-22.69694 31.6015,-23.43954 0.3752,-0.35355 0.2962,-1.26657 -0.2185,-2.52604 -4.0331,-13.61338 -2.5063,-24.00602 5.0871,-34.07956 0.8945,-1.19392 0,0 0,0 l -19.4491,-38.63048 -58,-14.9383 19.6065,-76.12501 72.5,18.67286 -16.8055,65.25002 c 0,0.57985 16.4758,33.16175 17.3911,34.1639 9.7236,0.34545 20.7792,0.7225 28.6154,6.58748 7.4954,7.75893 13.0039,14.91486 12.8647,23.74342 l 5.2844,1.29333 0.7278,-2.89038 c 1.0176,-4.041 4.9983,-11.46525 8.4342,-15.73019 5.6094,-6.96288 13.9859,-12.45262 22.6745,-14.86036 24.4048,-6.76291 51.0967,13.29219 52.2671,39.27119 0.3394,7.53321 -0.7512,12.67493 -4.1475,19.55438 -9.1367,18.50683 -29.6696,28.47846 -48.1296,23.37371 -11.6069,-3.20969 -22.0935,-11.66987 -27.5369,-22.21588 -1.5604,-3.02297 -3.1638,-6.79425 -3.5633,-8.38063 l -0.7263,-2.88429 c 0,0 0.4341,-0.58448 -8.1256,-0.57848 -8.5747,1.55937 3.4957,-6.42986 -1.7402,2.71785 -1.2205,2.13229 -3.8992,5.33937 -6.2605,7.4954 l -4.1272,3.76845 19.4281,64.90449 13.6759,-8.07407 32.1867,70.13738 z m 67.3365,-21.31171 -31.9106,18.8395 47.1251,12.13736 z m -133.8144,-13.58873 c 9.9901,-1.59312 17.4922,-7.67168 20.8487,-16.89247 1.8755,-5.15248 1.8846,-14.85621 0.019,-20.25558 -2.5745,-7.45057 -8.5679,-13.43868 -15.9916,-15.97756 -3.1553,-1.07907 -5.2647,-1.34645 -10.3616,-1.31339 -7.045,0.0457 -11.4077,1.26908 -16.2096,4.54546 -13.0841,8.92755 -14.816,31.14744 -3.3234,42.64005 6.1681,6.16813 15.2725,8.8077 25.0186,7.25349 z m 174.9409,-59.15927 c 11.2956,-2.39423 18.8822,-10.50277 20.6602,-22.08152 0.8887,-5.78727 -0.05,-12.62191 -2.4349,-17.71918 -8.1922,-17.51261 -35.1501,-19.86289 -47.0869,-4.1052 -3.5235,4.65135 -5.0231,9.7419 -5.0231,17.05145 0,4.72179 0.3071,6.9876 1.3628,10.05676 4.4543,12.94913 17.9042,19.89605 32.5219,16.79769 z m -113.9598,-154.74592 -43.5001,-11.20372 -12.1373,47.12501 43.5,11.20372 z"
         style="fill:#404040;fill-opacity:1;stroke-width:0.60950065" />
    </g>
  </g>
  <g
     inkscape:groupmode="layer"
     id="layer5"
     inkscape:label="Logo Bleu"
     style="display:none">
    <g
       id="g1007"
       transform="matrix(1.2935048,-0.3331508,0.3331508,1.2935048,-839.35746,384.53131)"
       style="display:inline;fill:#33b8cc;fill-opacity:1">
      <path
         style="fill:#33b8cc;fill-opacity:1;stroke-width:0.60950065"
         d="m 1929.3282,941.80239 45.5864,-26.91357 -18.8648,-64.69223 -0.9137,-3.19988 -2.8781,-0.009 c -4.4062,-0.0138 -10.3,-1.62732 -14.7769,-4.04541 l -4.0464,-2.18555 -34.7936,25.32516 c -0.261,0.22844 -0.059,2.17662 0.4481,4.3293 6.9505,29.4875 -21.8444,58.04141 -51.0093,50.58228 -15.2027,-3.88816 -28.2833,-17.18183 -31.8269,-32.34505 -5.8639,-25.09254 15.2838,-51.23724 41.4042,-51.18761 11.1446,0.0212 22.3269,4.91914 30.4587,13.34124 1.3251,1.37243 2.5952,2.49533 2.8225,2.49533 0.5261,0 30.8135,-22.69694 31.6015,-23.43954 0.3752,-0.35355 0.2962,-1.26657 -0.2185,-2.52604 -4.0331,-13.61338 -2.5063,-24.00602 5.0871,-34.07956 0.8945,-1.19392 0,0 0,0 l -19.4491,-38.63048 -58,-14.9383 19.6065,-76.12501 72.5,18.67286 -16.8055,65.25002 c 0,0.57985 16.4758,33.16175 17.3911,34.1639 9.7236,0.34545 20.7792,0.7225 28.6154,6.58748 7.4954,7.75893 13.0039,14.91486 12.8647,23.74342 l 5.2844,1.29333 0.7278,-2.89038 c 1.0176,-4.041 4.9983,-11.46525 8.4342,-15.73019 5.6094,-6.96288 13.9859,-12.45262 22.6745,-14.86036 24.4048,-6.76291 51.0967,13.29219 52.2671,39.27119 0.3394,7.53321 -0.7512,12.67493 -4.1475,19.55438 -9.1367,18.50683 -29.6696,28.47846 -48.1296,23.37371 -11.6069,-3.20969 -22.0935,-11.66987 -27.5369,-22.21588 -1.5604,-3.02297 -3.1638,-6.79425 -3.5633,-8.38063 l -0.7263,-2.88429 c 0,0 0.4341,-0.58448 -8.1256,-0.57848 -8.5747,1.55937 3.4957,-6.42986 -1.7402,2.71785 -1.2205,2.13229 -3.8992,5.33937 -6.2605,7.4954 l -4.1272,3.76845 19.4281,64.90449 13.6759,-8.07407 32.1867,70.13738 z m 67.3365,-21.31171 -31.9106,18.8395 47.1251,12.13736 z m -133.8144,-13.58873 c 9.9901,-1.59312 17.4922,-7.67168 20.8487,-16.89247 1.8755,-5.15248 1.8846,-14.85621 0.019,-20.25558 -2.5745,-7.45057 -8.5679,-13.43868 -15.9916,-15.97756 -3.1553,-1.07907 -5.2647,-1.34645 -10.3616,-1.31339 -7.045,0.0457 -11.4077,1.26908 -16.2096,4.54546 -13.0841,8.92755 -14.816,31.14744 -3.3234,42.64005 6.1681,6.16813 15.2725,8.8077 25.0186,7.25349 z m 174.9409,-59.15927 c 11.2956,-2.39423 18.8822,-10.50277 20.6602,-22.08152 0.8887,-5.78727 -0.05,-12.62191 -2.4349,-17.71918 -8.1922,-17.51261 -35.1501,-19.86289 -47.0869,-4.1052 -3.5235,4.65135 -5.0231,9.7419 -5.0231,17.05145 0,4.72179 0.3071,6.9876 1.3628,10.05676 4.4543,12.94913 17.9042,19.89605 32.5219,16.79769 z m -113.9598,-154.74592 -43.5001,-11.20372 -12.1373,47.12501 43.5,11.20372 z"
         id="path1021"
         inkscape:connector-curvature="0"
         sodipodi:nodetypes="cccccccccccccscccccccccccccsssccccccccccccccccccccccscccccccssccccccc" />
    </g>
  </g>
  <g
     inkscape:groupmode="layer"
     id="layer8"
     inkscape:label="Maison Blanc"
     style="display:inline">
    <path
       id="path5281"
       d="M 340,960 V 500 H 210 L 560,210 V 120 L 380,270 v -80 h 40 V 120 H 270 v 70 h 40 V 330 L 120,485 v 85 H 270 V 890 H 120 v 70 z"
       style="display:inline;fill:#ffffff;fill-opacity:1;stroke-width:1.28406775"
       inkscape:connector-curvature="0"
       sodipodi:nodetypes="cccccccccccccccccccc" />
  </g>
  <g
     inkscape:groupmode="layer"
     id="layer14"
     inkscape:label="Maison Halo 2"
     style="display:none">
    <path
       id="path4776"
       d="M 350,970 V 510 H 220 L 570,220 V 130 L 390,280 v -80 h 40 V 130 H 280 v 70 h 40 V 340 L 130,495 v 85 H 280 V 900 H 130 v 70 z"
       style="display:inline;fill:#33b8cc;fill-opacity:1;stroke-width:1.28406775"
       inkscape:connector-curvature="0"
       sodipodi:nodetypes="cccccccccccccccccccc" />
  </g>
  <g
     inkscape:groupmode="layer"
     id="layer13"
     inkscape:label="Maison Halo 1"
     style="display:none">
    <path
       id="path5111-0"
       d="M 340,960 V 500 H 210 L 560,210 V 120 L 380,270 v -80 h 40 V 120 H 270 v 70 h 40 V 330 L 120,485 v 85 H 270 V 890 H 120 v 70 z"
       style="display:inline;fill:#000000;fill-opacity:1;stroke-width:1.28406775"
       inkscape:connector-curvature="0"
       sodipodi:nodetypes="cccccccccccccccccccc" />
  </g>
  <g
     inkscape:groupmode="layer"
     id="layer7"
     inkscape:label="Maison Noir"
     style="display:none">
    <path
       id="path5111"
       d="M 340,960 V 500 H 210 L 560,210 V 120 L 380,270 v -80 h 40 V 120 H 270 v 70 h 40 V 330 L 120,485 v 85 H 270 V 890 H 120 v 70 z"
       style="display:inline;fill:#404040;fill-opacity:1;stroke-width:1.28406775"
       inkscape:connector-curvature="0"
       sodipodi:nodetypes="cccccccccccccccccccc" />
  </g>
  <g
     inkscape:groupmode="layer"
     id="layer2"
     inkscape:label="Maison Bleu"
     style="display:none">
    <flowRoot
       xml:space="preserve"
       id="flowRoot4888"
       style="font-style:normal;font-weight:normal;font-size:40px;line-height:1.25;font-family:sans-serif;letter-spacing:0px;word-spacing:0px;display:inline;fill:#000000;fill-opacity:1;stroke:none"
       transform="matrix(1.4868843,0,0,1.4868843,602.61276,-286.0771)"><flowRegion
         id="flowRegion4890"><rect
           id="rect4892"
           width="440.31729"
           height="309.59811"
           x="813.55499"
           y="70.36618" /></flowRegion><flowPara
         id="flowPara4894" /></flowRoot>    <path
       sodipodi:nodetypes="cccccccccccccccccccc"
       inkscape:connector-curvature="0"
       style="display:inline;fill:#33b8cc;fill-opacity:1;stroke-width:1.28406775"
       d="M 340,960 V 500 H 210 L 560,210 V 120 L 380,270 v -80 h 40 V 120 H 270 v 70 h 40 V 330 L 120,485 v 85 H 270 V 890 H 120 v 70 z"
       id="path5278" />
  </g>
  <g
     inkscape:groupmode="layer"
     id="layer10"
     inkscape:label="Lettres Blanc"
     style="display:none">
    <g
       style="display:inline;opacity:1"
       id="g5384"
       transform="translate(-8,-8)">
      <g
         id="g5354">
        <path
           sodipodi:nodetypes="cccc"
           inkscape:connector-curvature="0"
           style="display:inline;fill:#ffffff;fill-opacity:1;stroke-width:1.17232883"
           d="m 628,198 70,-70 h -70 z"
           id="path4912-00" />
        <path
           sodipodi:nodetypes="ccaaaaaaaaaaaaaaccccaaaaaaaaaaaaaaaaaaaaaccc"
           inkscape:connector-curvature="0"
           style="display:inline;fill:#ffffff;fill-opacity:1;stroke-width:1.20804572"
           d="M 708,468 V 293 c 0,0 0.88588,-10.21267 1.95905,-15.21096 1.41694,-6.59938 3.31991,-13.13198 5.88548,-19.37518 2.42389,-5.89841 5.35814,-11.63433 8.91729,-16.92573 3.37752,-5.02137 7.41336,-9.60814 11.68652,-13.89322 3.974,-3.98509 8.32671,-7.61074 12.89024,-10.90434 5.03765,-3.63579 10.27919,-7.08133 15.90696,-9.7129 5.91394,-2.76539 12.18129,-4.84916 18.55028,-6.2838 6.68573,-1.506 13.56837,-2.51963 20.4204,-2.38982 7.91968,0.15004 15.89299,1.38018 23.48067,3.65417 6.71764,2.01325 13.10984,5.15315 19.14104,8.73147 5.4287,3.22086 10.42514,7.17453 15.15522,11.35436 4.62886,4.09039 8.97279,8.54364 12.85182,13.35101 4.04215,5.00952 7.66257,10.39163 10.76801,16.02994 3.45009,6.26407 6.70531,12.74996 8.65726,19.62976 C 896.74517,279.77784 898.0197,289.28501 898,298 v 170 h 70 V 298 c -0.0191,-7.98743 -1.37244,-17.85833 -2.92569,-26.66359 -1.65007,-9.35415 -3.85904,-18.63839 -6.77126,-27.67951 -2.79758,-8.68522 -6.22358,-17.1932 -10.23764,-25.38752 -2.81875,-5.75421 -6.10119,-11.29236 -9.67936,-16.60771 -3.29936,-4.90117 -6.95172,-9.57405 -10.82947,-14.03166 -5.02556,-5.77706 -10.37136,-11.29958 -16.06654,-16.41773 -6.14506,-5.52245 -12.62997,-10.70177 -19.45892,-15.35201 -6.26862,-4.26868 -12.83353,-8.14657 -19.657,-11.45679 -6.92103,-3.35755 -14.11314,-6.21324 -21.46819,-8.46648 -8.49409,-2.60219 -17.22322,-4.51429 -26.01525,-5.78756 -9.67427,-1.40103 -19.48862,-2.39674 -29.25633,-2.01419 -9.08071,0.35565 -18.07918,2.10741 -26.96887,3.994 -6.96095,1.47727 -13.88872,3.26354 -20.5676,5.7191 -7.0612,2.59612 -13.90166,5.83391 -20.48295,9.47904 -8.07529,4.4726 -15.91977,9.44885 -23.1922,15.13447 -7.94774,6.21358 -15.34294,13.17568 -22.16698,20.60587 -6.55655,7.13895 -12.64927,14.76643 -17.91859,22.90198 -4.60743,7.11362 -8.46903,14.72253 -11.86695,22.48694 -3.0933,7.06834 -5.52362,14.42575 -7.70721,21.82588 -1.7184,5.82364 -3.14284,11.74388 -4.23091,17.71747 -1.20419,6.61111 -2.10924,13.29343 -2.53209,20 -0.10488,1.66336 0,5 0,5 l 0.05,175 z"
           id="path4910-5" />
        <g
           aria-label="D"
           transform="matrix(1.1733132,0,0,1.25338,-138.26205,-132.0747)"
           style="font-style:normal;font-weight:normal;font-size:81.58670807px;line-height:1.25;font-family:sans-serif;letter-spacing:0px;word-spacing:0px;display:inline;fill:#ffffff;fill-opacity:1;stroke:none;stroke-width:2.03966761"
           id="text4898-5">
          <path
             d="m 780.91856,606.42 c 34.1596,0 57.85557,3.41333 83.52194,14.62573 18.12147,7.91639 33.03529,20.03132 46.33306,35.67538 20.05668,23.59553 31.16269,55.19032 32.07959,85.33214 0.85772,28.19634 -8.09052,58.01488 -25.10792,81.29369 -15.33389,20.97586 -39.62619,36.62169 -64.74694,46.26696 -21.08359,8.09517 -51.067,8.0726 -67.8183,8.0726 H 661.59833 V 718.11797 H 716.997 v 107.70875 h 72.44443 c 30.86645,0.72535 54.04775,-7.25936 72.44442,-23.93527 16.1614,-14.64972 25.47803,-37.82959 24.49836,-58.86907 -1.1615,-24.94445 -14.93926,-51.17308 -35.42262,-67.16471 -17.51213,-13.67196 -33.78313,-17.5779 -65.7816,-17.5779 H 661.59833 V 606.42 Z"
             style="font-style:normal;font-variant:normal;font-weight:normal;font-stretch:normal;font-size:391.61621094px;font-family:android;-inkscape-font-specification:'android, Normal';font-variant-ligatures:normal;font-variant-caps:normal;font-variant-numeric:normal;font-feature-settings:normal;text-align:start;writing-mode:lr-tb;text-anchor:start;fill:#ffffff;fill-opacity:1;stroke-width:2.03269672"
             id="path4900-9"
             inkscape:connector-curvature="0"
             sodipodi:nodetypes="sasaaascccccaaasccs" />
        </g>
      </g>
    </g>
  </g>
  <g
     inkscape:groupmode="layer"
     id="layer11"
     inkscape:label="Lettres Halo 2"
     style="display:none">
    <path
       id="path5287"
       d="m 630,200 70,-70 h -70 z"
       style="display:inline;opacity:1;fill:#ffffff;fill-opacity:1;stroke-width:1.17232883"
       inkscape:connector-curvature="0"
       sodipodi:nodetypes="cccc" />
    <path
       id="path5289"
       d="M 710,470 V 295 c 0,0 0.88588,-10.21267 1.95905,-15.21096 1.41694,-6.59938 3.31991,-13.13198 5.88548,-19.37518 2.42389,-5.89841 5.35814,-11.63433 8.91729,-16.92573 3.37752,-5.02137 7.41336,-9.60814 11.68652,-13.89322 3.974,-3.98509 8.32671,-7.61074 12.89024,-10.90434 5.03765,-3.63579 10.27919,-7.08133 15.90696,-9.7129 5.91394,-2.76539 12.18129,-4.84916 18.55028,-6.2838 6.68573,-1.506 13.56837,-2.51963 20.4204,-2.38982 7.91968,0.15004 15.89298,1.38018 23.48068,3.65417 6.7176,2.01325 13.1098,5.15315 19.141,8.73147 5.4287,3.22086 10.4252,7.17453 15.1553,11.35436 4.6288,4.09039 8.9727,8.54364 12.8518,13.35101 4.0421,5.00952 7.6625,10.39163 10.768,16.02994 3.4501,6.26407 6.7053,12.74996 8.6572,19.62976 2.475,8.72308 3.7495,18.23025 3.7298,26.94524 v 170 h 70 V 300 c -0.019,-7.98743 -1.3724,-17.85833 -2.9257,-26.66359 -1.6501,-9.35415 -3.859,-18.63839 -6.7712,-27.67951 -2.7976,-8.68522 -6.2236,-17.1932 -10.2377,-25.38752 -2.8187,-5.75421 -6.1012,-11.29236 -9.6793,-16.60771 -3.2994,-4.90117 -6.9518,-9.57405 -10.8295,-14.03166 -5.0256,-5.77706 -10.3714,-11.29958 -16.0666,-16.41773 -6.145,-5.52245 -12.6299,-10.70177 -19.4589,-15.35201 -6.2686,-4.26868 -12.8335,-8.14657 -19.657,-11.45679 -6.921,-3.35755 -14.1131,-6.21324 -21.4682,-8.46648 -8.4941,-2.60219 -17.2232,-4.51429 -26.0152,-5.78756 -9.6743,-1.40103 -19.48864,-2.39674 -29.25635,-2.01419 -9.08071,0.35565 -18.07918,2.10741 -26.96887,3.994 -6.96095,1.47727 -13.88872,3.26354 -20.5676,5.7191 -7.0612,2.59612 -13.90166,5.83391 -20.48295,9.47904 -8.07529,4.4726 -15.91977,9.44885 -23.1922,15.13447 -7.94774,6.21358 -15.34294,13.17568 -22.16698,20.60587 -6.55655,7.13895 -12.64927,14.76643 -17.91859,22.90198 -4.60743,7.11362 -8.46903,14.72253 -11.86695,22.48694 -3.0933,7.06834 -5.52362,14.42575 -7.70721,21.82588 -1.7184,5.82364 -3.14284,11.74388 -4.23091,17.71747 -1.20419,6.61111 -2.10924,13.29343 -2.53209,20 -0.10488,1.66336 0,5 0,5 l 0.05,175 z"
       style="display:inline;opacity:1;fill:#ffffff;fill-opacity:1;stroke-width:1.20804572"
       inkscape:connector-curvature="0"
       sodipodi:nodetypes="ccaaaaaaaaaaaaaaccccaaaaaaaaaaaaaaaaaaaaaccc" />
    <g
       id="g5293"
       style="font-style:normal;font-weight:normal;font-size:81.58670807px;line-height:1.25;font-family:sans-serif;letter-spacing:0px;word-spacing:0px;display:inline;opacity:1;fill:#ffffff;fill-opacity:1;stroke:none;stroke-width:2.03966761"
       transform="matrix(1.1733132,0,0,1.25338,-136.26205,-130.0747)"
       aria-label="D">
      <path
         sodipodi:nodetypes="sasaaascccccaaasccs"
         inkscape:connector-curvature="0"
         id="path5291"
         style="font-style:normal;font-variant:normal;font-weight:normal;font-stretch:normal;font-size:391.61621094px;font-family:android;-inkscape-font-specification:'android, Normal';font-variant-ligatures:normal;font-variant-caps:normal;font-variant-numeric:normal;font-feature-settings:normal;text-align:start;writing-mode:lr-tb;text-anchor:start;fill:#ffffff;fill-opacity:1;stroke-width:2.03269672"
         d="m 780.91856,606.42 c 34.1596,0 57.85557,3.41333 83.52194,14.62573 18.12147,7.91639 33.03529,20.03132 46.33306,35.67538 20.05668,23.59553 31.16269,55.19032 32.07959,85.33214 0.85772,28.19634 -8.09052,58.01488 -25.10792,81.29369 -15.33389,20.97586 -39.62619,36.62169 -64.74694,46.26696 -21.08359,8.09517 -51.067,8.0726 -67.8183,8.0726 H 661.59833 V 718.11797 H 716.997 v 107.70875 h 72.44443 c 30.86645,0.72535 54.04775,-7.25936 72.44442,-23.93527 16.1614,-14.64972 25.47803,-37.82959 24.49836,-58.86907 -1.1615,-24.94445 -14.93926,-51.17308 -35.42262,-67.16471 -17.51213,-13.67196 -33.78313,-17.5779 -65.7816,-17.5779 H 661.59833 V 606.42 Z" />
    </g>
    <path
       id="path5295"
       d="m 630,200 70,-70 h -70 z"
       style="display:inline;fill:#33b8cc;fill-opacity:1;stroke-width:1.17232883"
       inkscape:connector-curvature="0"
       sodipodi:nodetypes="cccc" />
    <path
       id="path5297"
       d="M 710,470 V 295 c 0,0 0.88588,-10.21267 1.95905,-15.21096 1.41694,-6.59938 3.31991,-13.13198 5.88548,-19.37518 2.42389,-5.89841 5.35814,-11.63433 8.91729,-16.92573 3.37752,-5.02137 7.41336,-9.60814 11.68652,-13.89322 3.974,-3.98509 8.32671,-7.61074 12.89024,-10.90434 5.03765,-3.63579 10.27919,-7.08133 15.90696,-9.7129 5.91394,-2.76539 12.18129,-4.84916 18.55028,-6.2838 6.68573,-1.506 13.56837,-2.51963 20.4204,-2.38982 7.91968,0.15004 15.89298,1.38018 23.48068,3.65417 6.7176,2.01325 13.1098,5.15315 19.141,8.73147 5.4287,3.22086 10.4252,7.17453 15.1553,11.35436 4.6288,4.09039 8.9727,8.54364 12.8518,13.35101 4.0421,5.00952 7.6625,10.39163 10.768,16.02994 3.4501,6.26407 6.7053,12.74996 8.6572,19.62976 2.475,8.72308 3.7495,18.23025 3.7298,26.94524 v 170 h 70 V 300 c -0.019,-7.98743 -1.3724,-17.85833 -2.9257,-26.66359 -1.6501,-9.35415 -3.859,-18.63839 -6.7712,-27.67951 -2.7976,-8.68522 -6.2236,-17.1932 -10.2377,-25.38752 -2.8187,-5.75421 -6.1012,-11.29236 -9.6793,-16.60771 -3.2994,-4.90117 -6.9518,-9.57405 -10.8295,-14.03166 -5.0256,-5.77706 -10.3714,-11.29958 -16.0666,-16.41773 -6.145,-5.52245 -12.6299,-10.70177 -19.4589,-15.35201 -6.2686,-4.26868 -12.8335,-8.14657 -19.657,-11.45679 -6.921,-3.35755 -14.1131,-6.21324 -21.4682,-8.46648 -8.4941,-2.60219 -17.2232,-4.51429 -26.0152,-5.78756 -9.6743,-1.40103 -19.48864,-2.39674 -29.25635,-2.01419 -9.08071,0.35565 -18.07918,2.10741 -26.96887,3.994 -6.96095,1.47727 -13.88872,3.26354 -20.5676,5.7191 -7.0612,2.59612 -13.90166,5.83391 -20.48295,9.47904 -8.07529,4.4726 -15.91977,9.44885 -23.1922,15.13447 -7.94774,6.21358 -15.34294,13.17568 -22.16698,20.60587 -6.55655,7.13895 -12.64927,14.76643 -17.91859,22.90198 -4.60743,7.11362 -8.46903,14.72253 -11.86695,22.48694 -3.0933,7.06834 -5.52362,14.42575 -7.70721,21.82588 -1.7184,5.82364 -3.14284,11.74388 -4.23091,17.71747 -1.20419,6.61111 -2.10924,13.29343 -2.53209,20 -0.10488,1.66336 0,5 0,5 l 0.05,175 z"
       style="display:inline;fill:#33b8cc;fill-opacity:1;stroke-width:1.20804572"
       inkscape:connector-curvature="0"
       sodipodi:nodetypes="ccaaaaaaaaaaaaaaccccaaaaaaaaaaaaaaaaaaaaaccc" />
    <g
       id="g5301"
       style="font-style:normal;font-weight:normal;font-size:81.58670807px;line-height:1.25;font-family:sans-serif;letter-spacing:0px;word-spacing:0px;display:inline;fill:#33b8cc;fill-opacity:1;stroke:none;stroke-width:2.03966761"
       transform="matrix(1.1733132,0,0,1.25338,-136.26205,-130.0747)"
       aria-label="D">
      <path
         sodipodi:nodetypes="sasaaascccccaaasccs"
         inkscape:connector-curvature="0"
         id="path5299"
         style="font-style:normal;font-variant:normal;font-weight:normal;font-stretch:normal;font-size:391.61621094px;font-family:android;-inkscape-font-specification:'android, Normal';font-variant-ligatures:normal;font-variant-caps:normal;font-variant-numeric:normal;font-feature-settings:normal;text-align:start;writing-mode:lr-tb;text-anchor:start;fill:#33b8cc;fill-opacity:1;stroke-width:2.03269672"
         d="m 780.91856,606.42 c 34.1596,0 57.85557,3.41333 83.52194,14.62573 18.12147,7.91639 33.03529,20.03132 46.33306,35.67538 20.05668,23.59553 31.16269,55.19032 32.07959,85.33214 0.85772,28.19634 -8.09052,58.01488 -25.10792,81.29369 -15.33389,20.97586 -39.62619,36.62169 -64.74694,46.26696 -21.08359,8.09517 -51.067,8.0726 -67.8183,8.0726 H 661.59833 V 718.11797 H 716.997 v 107.70875 h 72.44443 c 30.86645,0.72535 54.04775,-7.25936 72.44442,-23.93527 16.1614,-14.64972 25.47803,-37.82959 24.49836,-58.86907 -1.1615,-24.94445 -14.93926,-51.17308 -35.42262,-67.16471 -17.51213,-13.67196 -33.78313,-17.5779 -65.7816,-17.5779 H 661.59833 V 606.42 Z" />
    </g>
    <path
       inkscape:connector-curvature="0"
       id="path5285"
       d="m 1044.9882,249.28618 c 0.015,-0.35421 0.087,-0.42626 0.1837,-0.1837 0.088,0.21949 0.077,0.48173 -0.024,0.58277 -0.101,0.10103 -0.1729,-0.0786 -0.1597,-0.39907 z"
       style="display:inline;fill:#33b8cc;fill-opacity:1;stroke-width:0.30405405" />
    <path
       inkscape:connector-curvature="0"
       id="path5303"
       d="m 1044.9882,210.36726 c 0.015,-0.35421 0.087,-0.42626 0.1837,-0.1837 0.088,0.21949 0.077,0.48173 -0.024,0.58277 -0.101,0.10103 -0.1729,-0.0786 -0.1597,-0.39907 z"
       style="display:inline;fill:#33b8cc;fill-opacity:1;stroke-width:0.30405405" />
    <path
       inkscape:connector-curvature="0"
       id="path5305"
       d="m 1044.9882,206.41456 c 0.015,-0.35421 0.087,-0.42626 0.1837,-0.1837 0.088,0.21948 0.077,0.48173 -0.024,0.58277 -0.101,0.10103 -0.1729,-0.0785 -0.1597,-0.39907 z"
       style="display:inline;fill:#33b8cc;fill-opacity:1;stroke-width:0.30405405" />
  </g>
  <g
     inkscape:groupmode="layer"
     id="layer12"
     inkscape:label="Lettres Halo 1"
     style="display:none">
    <path
       sodipodi:nodetypes="cccc"
       inkscape:connector-curvature="0"
       style="display:inline;fill:#000000;fill-opacity:1;stroke-width:1.17232883"
       d="m 620,190 70,-70 h -70 z"
       id="path4912-6" />
    <path
       sodipodi:nodetypes="ccaaaaaaaaaaaaaaccccaaaaaaaaaaaaaaaaaaaaaccc"
       inkscape:connector-curvature="0"
       style="display:inline;fill:#000000;fill-opacity:1;stroke-width:1.20804572"
       d="M 700,460 V 285 c 0,0 0.8859,-10.21267 1.9591,-15.21096 1.4169,-6.59938 3.3199,-13.13198 5.8854,-19.37518 2.4239,-5.89841 5.3582,-11.63433 8.9173,-16.92573 3.3775,-5.02137 7.4134,-9.60814 11.6865,-13.89322 3.974,-3.98509 8.3268,-7.61074 12.8903,-10.90434 5.0376,-3.63579 10.2792,-7.08133 15.9069,-9.7129 5.914,-2.76539 12.1813,-4.84916 18.5503,-6.2838 6.6858,-1.506 13.5684,-2.51963 20.4204,-2.38982 7.9197,0.15004 15.893,1.38018 23.4807,3.65417 6.7176,2.01325 13.1098,5.15315 19.141,8.73147 5.4287,3.22086 10.4252,7.17453 15.1553,11.35436 4.6288,4.09039 8.9727,8.54364 12.8518,13.35101 4.0421,5.00952 7.6625,10.39163 10.768,16.02994 3.4501,6.26407 6.7053,12.74996 8.6572,19.62976 2.475,8.72308 3.7495,18.23025 3.7298,26.94524 v 170 h 70 V 290 c -0.019,-7.98743 -1.3724,-17.85833 -2.9257,-26.66359 -1.6501,-9.35415 -3.859,-18.63839 -6.7712,-27.67951 -2.7976,-8.68522 -6.2236,-17.1932 -10.2377,-25.38752 -2.8187,-5.75421 -6.1012,-11.29236 -9.6793,-16.60771 -3.2994,-4.90117 -6.9518,-9.57405 -10.8295,-14.03166 -5.0256,-5.77706 -10.3714,-11.29958 -16.0666,-16.41773 -6.145,-5.52245 -12.6299,-10.70177 -19.4589,-15.35201 -6.2686,-4.26868 -12.8335,-8.14657 -19.657,-11.45679 -6.921,-3.35755 -14.1131,-6.21324 -21.4682,-8.46648 -8.4941,-2.60219 -17.2232,-4.51429 -26.0152,-5.78756 -9.6743,-1.40103 -19.4886,-2.39674 -29.2563,-2.01419 -9.0808,0.35565 -18.0792,2.10741 -26.9689,3.994 -6.961,1.47727 -13.8887,3.26354 -20.5676,5.7191 -7.0612,2.59612 -13.9017,5.83391 -20.483,9.47904 -8.0753,4.4726 -15.9197,9.44885 -23.1922,15.13447 -7.9477,6.21358 -15.3429,13.17568 -22.1669,20.60587 -6.5566,7.13895 -12.6493,14.76643 -17.9186,22.90198 -4.6075,7.11362 -8.4691,14.72253 -11.867,22.48694 -3.0933,7.06834 -5.5236,14.42575 -7.7072,21.82588 -1.7184,5.82364 -3.1428,11.74388 -4.2309,17.71747 -1.2042,6.61111 -2.1092,13.29343 -2.5321,20 -0.1049,1.66336 0,5 0,5 l 0.05,175 z"
       id="path4910-0" />
    <g
       aria-label="D"
       transform="matrix(1.1733132,0,0,1.25338,-146.26205,-140.0747)"
       style="font-style:normal;font-weight:normal;font-size:81.58670807px;line-height:1.25;font-family:sans-serif;letter-spacing:0px;word-spacing:0px;display:inline;fill:#000000;fill-opacity:1;stroke:none;stroke-width:2.03966761"
       id="text4898-0">
      <path
         d="m 780.91856,606.42 c 34.1596,0 57.85557,3.41333 83.52194,14.62573 18.12147,7.91639 33.03529,20.03132 46.33306,35.67538 20.05668,23.59553 31.16269,55.19032 32.07959,85.33214 0.85772,28.19634 -8.09052,58.01488 -25.10792,81.29369 -15.33389,20.97586 -39.62619,36.62169 -64.74694,46.26696 -21.08359,8.09517 -51.067,8.0726 -67.8183,8.0726 H 661.59833 V 718.11797 H 716.997 v 107.70875 h 72.44443 c 30.86645,0.72535 54.04775,-7.25936 72.44442,-23.93527 16.1614,-14.64972 25.47803,-37.82959 24.49836,-58.86907 -1.1615,-24.94445 -14.93926,-51.17308 -35.42262,-67.16471 -17.51213,-13.67196 -33.78313,-17.5779 -65.7816,-17.5779 H 661.59833 V 606.42 Z"
         style="font-style:normal;font-variant:normal;font-weight:normal;font-stretch:normal;font-size:391.61621094px;font-family:android;-inkscape-font-specification:'android, Normal';font-variant-ligatures:normal;font-variant-caps:normal;font-variant-numeric:normal;font-feature-settings:normal;text-align:start;writing-mode:lr-tb;text-anchor:start;fill:#000000;fill-opacity:1;stroke-width:2.03269672"
         id="path4900-3"
         inkscape:connector-curvature="0"
         sodipodi:nodetypes="sasaaascccccaaasccs" />
    </g>
  </g>
  <g
     inkscape:groupmode="layer"
     id="layer9"
     inkscape:label="Lettres Noir"
     style="display:inline">
    <path
       sodipodi:nodetypes="cccc"
       inkscape:connector-curvature="0"
       style="display:inline;fill:#404040;fill-opacity:1;stroke-width:1.17232883"
       d="m 620,190 70,-70 h -70 z"
       id="path4912" />
    <path
       sodipodi:nodetypes="ccaaaaaaaaaaaaaaccccaaaaaaaaaaaaaaaaaaaaaccc"
       inkscape:connector-curvature="0"
       style="display:inline;fill:#404040;fill-opacity:1;stroke-width:1.20804572"
       d="M 700,460 V 285 c 0,0 0.8859,-10.21267 1.9591,-15.21096 1.4169,-6.59938 3.3199,-13.13198 5.8854,-19.37518 2.4239,-5.89841 5.3582,-11.63433 8.9173,-16.92573 3.3775,-5.02137 7.4134,-9.60814 11.6865,-13.89322 3.974,-3.98509 8.3268,-7.61074 12.8903,-10.90434 5.0376,-3.63579 10.2792,-7.08133 15.9069,-9.7129 5.914,-2.76539 12.1813,-4.84916 18.5503,-6.2838 6.6858,-1.506 13.5684,-2.51963 20.4204,-2.38982 7.9197,0.15004 15.893,1.38018 23.4807,3.65417 6.7176,2.01325 13.1098,5.15315 19.141,8.73147 5.4287,3.22086 10.4252,7.17453 15.1553,11.35436 4.6288,4.09039 8.9727,8.54364 12.8518,13.35101 4.0421,5.00952 7.6625,10.39163 10.768,16.02994 3.4501,6.26407 6.7053,12.74996 8.6572,19.62976 2.475,8.72308 3.7495,18.23025 3.7298,26.94524 v 170 h 70 V 290 c -0.019,-7.98743 -1.3724,-17.85833 -2.9257,-26.66359 -1.6501,-9.35415 -3.859,-18.63839 -6.7712,-27.67951 -2.7976,-8.68522 -6.2236,-17.1932 -10.2377,-25.38752 -2.8187,-5.75421 -6.1012,-11.29236 -9.6793,-16.60771 -3.2994,-4.90117 -6.9518,-9.57405 -10.8295,-14.03166 -5.0256,-5.77706 -10.3714,-11.29958 -16.0666,-16.41773 -6.145,-5.52245 -12.6299,-10.70177 -19.4589,-15.35201 -6.2686,-4.26868 -12.8335,-8.14657 -19.657,-11.45679 -6.921,-3.35755 -14.1131,-6.21324 -21.4682,-8.46648 -8.4941,-2.60219 -17.2232,-4.51429 -26.0152,-5.78756 -9.6743,-1.40103 -19.4886,-2.39674 -29.2563,-2.01419 -9.0808,0.35565 -18.0792,2.10741 -26.9689,3.994 -6.961,1.47727 -13.8887,3.26354 -20.5676,5.7191 -7.0612,2.59612 -13.9017,5.83391 -20.483,9.47904 -8.0753,4.4726 -15.9197,9.44885 -23.1922,15.13447 -7.9477,6.21358 -15.3429,13.17568 -22.1669,20.60587 -6.5566,7.13895 -12.6493,14.76643 -17.9186,22.90198 -4.6075,7.11362 -8.4691,14.72253 -11.867,22.48694 -3.0933,7.06834 -5.5236,14.42575 -7.7072,21.82588 -1.7184,5.82364 -3.1428,11.74388 -4.2309,17.71747 -1.2042,6.61111 -2.1092,13.29343 -2.5321,20 -0.1049,1.66336 0,5 0,5 l 0.05,175 z"
       id="path4910" />
    <g
       aria-label="D"
       transform="matrix(1.1733132,0,0,1.25338,-146.26205,-140.0747)"
       style="font-style:normal;font-weight:normal;font-size:81.58670807px;line-height:1.25;font-family:sans-serif;letter-spacing:0px;word-spacing:0px;display:inline;fill:#000000;fill-opacity:1;stroke:none;stroke-width:2.03966761"
       id="text4898">
      <path
         d="m 780.91856,606.42 c 34.1596,0 57.85557,3.41333 83.52194,14.62573 18.12147,7.91639 33.03529,20.03132 46.33306,35.67538 20.05668,23.59553 31.16269,55.19032 32.07959,85.33214 0.85772,28.19634 -8.09052,58.01488 -25.10792,81.29369 -15.33389,20.97586 -39.62619,36.62169 -64.74694,46.26696 -21.08359,8.09517 -51.067,8.0726 -67.8183,8.0726 H 661.59833 V 718.11797 H 716.997 v 107.70875 h 72.44443 c 30.86645,0.72535 54.04775,-7.25936 72.44442,-23.93527 16.1614,-14.64972 25.47803,-37.82959 24.49836,-58.86907 -1.1615,-24.94445 -14.93926,-51.17308 -35.42262,-67.16471 -17.51213,-13.67196 -33.78313,-17.5779 -65.7816,-17.5779 H 661.59833 V 606.42 Z"
         style="font-style:normal;font-variant:normal;font-weight:normal;font-stretch:normal;font-size:391.61621094px;font-family:android;-inkscape-font-specification:'android, Normal';font-variant-ligatures:normal;font-variant-caps:normal;font-variant-numeric:normal;font-feature-settings:normal;text-align:start;writing-mode:lr-tb;text-anchor:start;fill:#404040;fill-opacity:1;stroke-width:2.03269672"
         id="path4900"
         inkscape:connector-curvature="0"
         sodipodi:nodetypes="sasaaascccccaaasccs" />
    </g>
  </g>
  <g
     inkscape:groupmode="layer"
     id="layer3"
     inkscape:label="Lettres Bleu"
     style="display:none">
    <path
       sodipodi:nodetypes="cccc"
       inkscape:connector-curvature="0"
       style="display:inline;fill:#33b8cc;fill-opacity:1;stroke-width:1.17232883"
       d="m 620,190 70,-70 h -70 z"
       id="path4912-0" />
    <path
       sodipodi:nodetypes="ccaaaaaaaaaaaaaaccccaaaaaaaaaaaaaaaaaaaaaccc"
       inkscape:connector-curvature="0"
       style="display:inline;fill:#33b8cc;fill-opacity:1;stroke-width:1.20804572"
       d="M 700,460 V 285 c 0,0 0.88588,-10.21267 1.95905,-15.21096 1.41694,-6.59938 3.31991,-13.13198 5.88548,-19.37518 2.42389,-5.89841 5.35814,-11.63433 8.91729,-16.92573 3.37752,-5.02137 7.41336,-9.60814 11.68652,-13.89322 3.974,-3.98509 8.32671,-7.61074 12.89024,-10.90434 5.03765,-3.63579 10.27919,-7.08133 15.90696,-9.7129 5.91396,-2.76539 12.18126,-4.84916 18.55026,-6.2838 6.6857,-1.506 13.5684,-2.51963 20.4204,-2.38982 7.9197,0.15004 15.893,1.38018 23.4807,3.65417 6.7176,2.01325 13.1098,5.15315 19.141,8.73147 5.4287,3.22086 10.4252,7.17453 15.1553,11.35436 4.6288,4.09039 8.9727,8.54364 12.8518,13.35101 4.0421,5.00952 7.6625,10.39163 10.768,16.02994 3.4501,6.26407 6.7053,12.74996 8.6572,19.62976 2.475,8.72308 3.7495,18.23025 3.7298,26.94524 v 170 h 70 V 290 c -0.019,-7.98743 -1.3724,-17.85833 -2.9257,-26.66359 -1.6501,-9.35415 -3.859,-18.63839 -6.7712,-27.67951 -2.7976,-8.68522 -6.2236,-17.1932 -10.2377,-25.38752 -2.8187,-5.75421 -6.1012,-11.29236 -9.6793,-16.60771 -3.2994,-4.90117 -6.9518,-9.57405 -10.8295,-14.03166 -5.0256,-5.77706 -10.3714,-11.29958 -16.0666,-16.41773 -6.145,-5.52245 -12.6299,-10.70177 -19.4589,-15.35201 -6.2686,-4.26868 -12.8335,-8.14657 -19.657,-11.45679 -6.921,-3.35755 -14.1131,-6.21324 -21.4682,-8.46648 -8.4941,-2.60219 -17.2232,-4.51429 -26.0152,-5.78756 -9.6743,-1.40103 -19.4886,-2.39674 -29.2563,-2.01419 -9.0808,0.35565 -18.0792,2.10741 -26.9689,3.994 -6.96097,1.47727 -13.88874,3.26354 -20.56762,5.7191 -7.0612,2.59612 -13.90166,5.83391 -20.48295,9.47904 -8.07529,4.4726 -15.91977,9.44885 -23.1922,15.13447 -7.94774,6.21358 -15.34294,13.17568 -22.16698,20.60587 -6.55655,7.13895 -12.64927,14.76643 -17.91859,22.90198 -4.60743,7.11362 -8.46903,14.72253 -11.86695,22.48694 -3.0933,7.06834 -5.52362,14.42575 -7.70721,21.82588 -1.7184,5.82364 -3.14284,11.74388 -4.23091,17.71747 -1.20419,6.61111 -2.10924,13.29343 -2.53209,20 -0.10488,1.66336 0,5 0,5 l 0.05,175 z"
       id="path4910-7" />
    <g
       aria-label="D"
       transform="matrix(1.1733132,0,0,1.25338,-146.26205,-140.0747)"
       style="font-style:normal;font-weight:normal;font-size:81.58670807px;line-height:1.25;font-family:sans-serif;letter-spacing:0px;word-spacing:0px;display:inline;fill:#33b8cc;fill-opacity:1;stroke:none;stroke-width:2.03966761"
       id="text4898-6">
      <path
         d="m 780.91856,606.42 c 34.1596,0 57.85557,3.41333 83.52194,14.62573 18.12147,7.91639 33.03529,20.03132 46.33306,35.67538 20.05668,23.59553 31.16269,55.19032 32.07959,85.33214 0.85772,28.19634 -8.09052,58.01488 -25.10792,81.29369 -15.33389,20.97586 -39.62619,36.62169 -64.74694,46.26696 -21.08359,8.09517 -51.067,8.0726 -67.8183,8.0726 H 661.59833 V 718.11797 H 716.997 v 107.70875 h 72.44443 c 30.86645,0.72535 54.04775,-7.25936 72.44442,-23.93527 16.1614,-14.64972 25.47803,-37.82959 24.49836,-58.86907 -1.1615,-24.94445 -14.93926,-51.17308 -35.42262,-67.16471 -17.51213,-13.67196 -33.78313,-17.5779 -65.7816,-17.5779 H 661.59833 V 606.42 Z"
         style="font-style:normal;font-variant:normal;font-weight:normal;font-stretch:normal;font-size:391.61621094px;font-family:android;-inkscape-font-specification:'android, Normal';font-variant-ligatures:normal;font-variant-caps:normal;font-variant-numeric:normal;font-feature-settings:normal;text-align:start;writing-mode:lr-tb;text-anchor:start;fill:#33b8cc;fill-opacity:1;stroke-width:2.03269672"
         id="path4900-6"
         inkscape:connector-curvature="0"
         sodipodi:nodetypes="sasaaascccccaaasccs" />
    </g>
  </g>
  <g
     inkscape:groupmode="layer"
     id="layer20"
     inkscape:label="Lettres Bis Blanc"
     style="display:none">
    <g
       id="g4875"
       style="display:inline;fill:#ffffff;fill-opacity:1">
      <path
         sodipodi:nodetypes="sccsasasccsasasccccc"
         d="m 1190,120 h 160 v 70 h -170 c -37.4054,0 -48.3801,8.76663 -64.3113,25.42754 C 1097.5189,234.42956 1090.0633,264.84395 1090,290 c -0.063,25.15605 7.0808,56.70314 25.6527,75.88936 C 1131.5836,382.34721 1152.7465,390 1180,390 h 170 v 70 h -161.4834 c -45.2131,0 -92.5065,-12.91959 -123.4055,-43.74068 C 1033.4692,384.69715 1021.1534,331.02107 1020,290 c -1.1534,-41.02107 14.4239,-94.20758 46.0852,-125.62522 C 1097.2281,133.47155 1142.8147,120 1190,120 Z m -30,140 h 190 v 60 h -190 z"
         style="font-style:normal;font-variant:normal;font-weight:normal;font-stretch:normal;font-size:medium;line-height:1.25;font-family:android;-inkscape-font-specification:android;letter-spacing:0px;word-spacing:0px;fill:#ffffff;fill-opacity:1;stroke:none;stroke-width:2.50904131"
         id="path4865"
         inkscape:connector-curvature="0" />
      <path
         sodipodi:nodetypes="ccccccccccccc"
         d="m 1410,120 h 80 l 80,110 80,-110 h 90 l -120,170 120,170 h -90 l -80,-110 -80,110 h -80 l 110,-170 z"
         style="font-style:normal;font-variant:normal;font-weight:normal;font-stretch:normal;font-size:medium;line-height:1.25;font-family:android;-inkscape-font-specification:android;letter-spacing:0px;word-spacing:0px;fill:#ffffff;fill-opacity:1;stroke:none;stroke-width:2.54939246"
         id="path4867"
         inkscape:connector-curvature="0" />
      <path
         sodipodi:nodetypes="ccccccccc"
         d="m 1800,120 h 320 v 70 h -120 v 270 h -70 V 190 h -130 z"
         style="font-style:normal;font-variant:normal;font-weight:normal;font-stretch:normal;font-size:medium;line-height:1.25;font-family:android;-inkscape-font-specification:android;letter-spacing:0px;word-spacing:0px;fill:#ffffff;fill-opacity:1;stroke:none;stroke-width:2.60488892"
         id="path4869"
         inkscape:connector-curvature="0" />
      <path
         d="m 1184.9591,620.57593 h 2.2853 q 75.8752,0 129.5831,64.18294 34.7376,48.13719 34.7376,104.7692 v 2.35965 q 0,78.34095 -63.5336,133.08521 -46.1657,35.395 -101.2443,35.395 h -2.2853 q -75.4178,0 -129.1252,-63.71101 -18.7411,-27.13614 -26.2825,-49.78897 -8.9131,-28.31598 -8.9131,-55.45216 v -2.35965 q 0,-76.92513 61.4791,-131.6694 41.5926,-30.67568 75.8743,-34.45113 10.5128,-2.35968 27.4246,-2.35968 z M 1086,790 q 0,44.36172 33.5963,77.86898 29.9393,26.42827 62.8484,26.42827 h 6.3997 q 26.5107,0 53.9348,-18.64136 28.3399,-21.47296 38.3966,-54.74426 3.1987,-8.73077 4.5705,-29.96777 0,-43.41786 -32.6823,-76.68916 -30.624,-28.08005 -67.1908,-28.08005 -42.7374,0 -75.8757,36.81082 -13.9407,18.87734 -17.5971,32.09147 Q 1086,773.48233 1086,790 Z"
         style="font-style:normal;font-variant:normal;font-weight:normal;font-stretch:normal;font-size:medium;line-height:1.25;font-family:android;-inkscape-font-specification:android;letter-spacing:0px;word-spacing:0px;fill:#ffffff;fill-opacity:1;stroke:none;stroke-width:2.4770577"
         id="path4871"
         inkscape:connector-curvature="0" />
      <path
         sodipodi:nodetypes="cccccaasccsaaasaaasccsaa"
         d="m 1540,780 h 70 v 180 h -70 z m 35.3933,-89.32584 C 1548.428,690.62616 1517.8352,699.77542 1500,720 c -18.1377,20.56763 -20,39.35118 -20,79.8 V 960 h -70.115 L 1410,799.8 c 0.029,-40.07009 0.3209,-54.8003 10,-79.8 7.771,-20.07119 21.7705,-37.77307 37.2079,-52.77062 13.572,-13.18523 29.928,-23.90249 47.3198,-31.35718 22.0934,-9.46991 45.2747,-16.06465 70.3,-16.06465 25.1784,0 48.3749,6.54864 70.5297,16.06465 17.3284,7.44294 33.5525,18.23001 47.0931,31.35718 15.5004,15.02716 29.7114,32.6549 37.5495,52.77062 9.733,24.97878 10,39.68727 10,79.8 V 960 h -70 V 799.8 c 0,-40.42714 -1.8989,-59.20014 -20,-79.8 -17.638,-20.07283 -47.8856,-29.27831 -74.6067,-29.32584 z"
         style="font-style:normal;font-variant:normal;font-weight:normal;font-stretch:normal;font-size:medium;line-height:1.25;font-family:android;-inkscape-font-specification:android;letter-spacing:0px;word-spacing:0px;fill:#ffffff;fill-opacity:1;stroke:none;stroke-width:2.47291255"
         id="path4873"
         inkscape:connector-curvature="0" />
    </g>
  </g>
  <g
     inkscape:groupmode="layer"
     id="layer17"
     inkscape:label="Lettres Bis Halo 2"
     style="display:none">
    <g
       style="display:inline;fill:#33b8cc;fill-opacity:1"
       id="g4857"
       transform="translate(10,10)">
      <path
         inkscape:connector-curvature="0"
         id="path4847"
         style="font-style:normal;font-variant:normal;font-weight:normal;font-stretch:normal;font-size:medium;line-height:1.25;font-family:android;-inkscape-font-specification:android;letter-spacing:0px;word-spacing:0px;fill:#33b8cc;fill-opacity:1;stroke:none;stroke-width:2.50904131"
         d="m 1190,120 h 160 v 70 h -170 c -37.4054,0 -48.3801,8.76663 -64.3113,25.42754 C 1097.5189,234.42956 1090.0633,264.84395 1090,290 c -0.063,25.15605 7.0808,56.70314 25.6527,75.88936 C 1131.5836,382.34721 1152.7465,390 1180,390 h 170 v 70 h -161.4834 c -45.2131,0 -92.5065,-12.91959 -123.4055,-43.74068 C 1033.4692,384.69715 1021.1534,331.02107 1020,290 c -1.1534,-41.02107 14.4239,-94.20758 46.0852,-125.62522 C 1097.2281,133.47155 1142.8147,120 1190,120 Z m -30,140 h 190 v 60 h -190 z"
         sodipodi:nodetypes="sccsasasccsasasccccc" />
      <path
         inkscape:connector-curvature="0"
         id="path4849"
         style="font-style:normal;font-variant:normal;font-weight:normal;font-stretch:normal;font-size:medium;line-height:1.25;font-family:android;-inkscape-font-specification:android;letter-spacing:0px;word-spacing:0px;fill:#33b8cc;fill-opacity:1;stroke:none;stroke-width:2.54939246"
         d="m 1410,120 h 80 l 80,110 80,-110 h 90 l -120,170 120,170 h -90 l -80,-110 -80,110 h -80 l 110,-170 z"
         sodipodi:nodetypes="ccccccccccccc" />
      <path
         inkscape:connector-curvature="0"
         id="path4851"
         style="font-style:normal;font-variant:normal;font-weight:normal;font-stretch:normal;font-size:medium;line-height:1.25;font-family:android;-inkscape-font-specification:android;letter-spacing:0px;word-spacing:0px;fill:#33b8cc;fill-opacity:1;stroke:none;stroke-width:2.60488892"
         d="m 1800,120 h 320 v 70 h -120 v 270 h -70 V 190 h -130 z"
         sodipodi:nodetypes="ccccccccc" />
      <path
         inkscape:connector-curvature="0"
         id="path4853"
         style="font-style:normal;font-variant:normal;font-weight:normal;font-stretch:normal;font-size:medium;line-height:1.25;font-family:android;-inkscape-font-specification:android;letter-spacing:0px;word-spacing:0px;fill:#33b8cc;fill-opacity:1;stroke:none;stroke-width:2.4770577"
         d="m 1184.9591,620.57593 h 2.2853 q 75.8752,0 129.5831,64.18294 34.7376,48.13719 34.7376,104.7692 v 2.35965 q 0,78.34095 -63.5336,133.08521 -46.1657,35.395 -101.2443,35.395 h -2.2853 q -75.4178,0 -129.1252,-63.71101 -18.7411,-27.13614 -26.2825,-49.78897 -8.9131,-28.31598 -8.9131,-55.45216 v -2.35965 q 0,-76.92513 61.4791,-131.6694 41.5926,-30.67568 75.8743,-34.45113 10.5128,-2.35968 27.4246,-2.35968 z M 1086,790 q 0,44.36172 33.5963,77.86898 29.9393,26.42827 62.8484,26.42827 h 6.3997 q 26.5107,0 53.9348,-18.64136 28.3399,-21.47296 38.3966,-54.74426 3.1987,-8.73077 4.5705,-29.96777 0,-43.41786 -32.6823,-76.68916 -30.624,-28.08005 -67.1908,-28.08005 -42.7374,0 -75.8757,36.81082 -13.9407,18.87734 -17.5971,32.09147 Q 1086,773.48233 1086,790 Z" />
      <path
         inkscape:connector-curvature="0"
         id="path4855"
         style="font-style:normal;font-variant:normal;font-weight:normal;font-stretch:normal;font-size:medium;line-height:1.25;font-family:android;-inkscape-font-specification:android;letter-spacing:0px;word-spacing:0px;fill:#33b8cc;fill-opacity:1;stroke:none;stroke-width:2.47291255"
         d="m 1540,780 h 70 v 180 h -70 z m 35.3933,-89.32584 C 1548.428,690.62616 1517.8352,699.77542 1500,720 c -18.1377,20.56763 -20,39.35118 -20,79.8 V 960 h -70.115 L 1410,799.8 c 0.029,-40.07009 0.3209,-54.8003 10,-79.8 7.771,-20.07119 21.7705,-37.77307 37.2079,-52.77062 13.572,-13.18523 29.928,-23.90249 47.3198,-31.35718 22.0934,-9.46991 45.2747,-16.06465 70.3,-16.06465 25.1784,0 48.3749,6.54864 70.5297,16.06465 17.3284,7.44294 33.5525,18.23001 47.0931,31.35718 15.5004,15.02716 29.7114,32.6549 37.5495,52.77062 9.733,24.97878 10,39.68727 10,79.8 V 960 h -70 V 799.8 c 0,-40.42714 -1.8989,-59.20014 -20,-79.8 -17.638,-20.07283 -47.8856,-29.27831 -74.6067,-29.32584 z"
         sodipodi:nodetypes="cccccaasccsaaasaaasccsaa" />
    </g>
  </g>
  <g
     inkscape:groupmode="layer"
     id="layer4"
     inkscape:label="Lettres Bis Halo 1"
     style="display:none">
    <g
       id="g4809">
      <path
         sodipodi:nodetypes="sccsasasccsasasccccc"
         d="m 1190,120 h 160 v 70 h -170 c -37.4054,0 -48.3801,8.76663 -64.3113,25.42754 C 1097.5189,234.42956 1090.0633,264.84395 1090,290 c -0.063,25.15605 7.0808,56.70314 25.6527,75.88936 C 1131.5836,382.34721 1152.7465,390 1180,390 h 170 v 70 h -161.4834 c -45.2131,0 -92.5065,-12.91959 -123.4055,-43.74068 C 1033.4692,384.69715 1021.1534,331.02107 1020,290 c -1.1534,-41.02107 14.4239,-94.20758 46.0852,-125.62522 C 1097.2281,133.47155 1142.8147,120 1190,120 Z m -30,140 h 190 v 60 h -190 z"
         style="font-style:normal;font-variant:normal;font-weight:normal;font-stretch:normal;font-size:medium;line-height:1.25;font-family:android;-inkscape-font-specification:android;letter-spacing:0px;word-spacing:0px;fill:#000000;fill-opacity:1;stroke:none;stroke-width:2.50904131"
         id="path4557"
         inkscape:connector-curvature="0" />
      <path
         sodipodi:nodetypes="ccccccccccccc"
         d="m 1410,120 h 80 l 80,110 80,-110 h 90 l -120,170 120,170 h -90 l -80,-110 -80,110 h -80 l 110,-170 z"
         style="font-style:normal;font-variant:normal;font-weight:normal;font-stretch:normal;font-size:medium;line-height:1.25;font-family:android;-inkscape-font-specification:android;letter-spacing:0px;word-spacing:0px;fill:#000000;fill-opacity:1;stroke:none;stroke-width:2.54939246"
         id="path4559"
         inkscape:connector-curvature="0" />
      <path
         sodipodi:nodetypes="ccccccccc"
         d="m 1800,120 h 320 v 70 h -120 v 270 h -70 V 190 h -130 z"
         style="font-style:normal;font-variant:normal;font-weight:normal;font-stretch:normal;font-size:medium;line-height:1.25;font-family:android;-inkscape-font-specification:android;letter-spacing:0px;word-spacing:0px;fill:#000000;fill-opacity:1;stroke:none;stroke-width:2.60488892"
         id="path4561"
         inkscape:connector-curvature="0" />
      <path
         d="m 1184.9591,620.57593 h 2.2853 q 75.8752,0 129.5831,64.18294 34.7376,48.13719 34.7376,104.7692 v 2.35965 q 0,78.34095 -63.5336,133.08521 -46.1657,35.395 -101.2443,35.395 h -2.2853 q -75.4178,0 -129.1252,-63.71101 -18.7411,-27.13614 -26.2825,-49.78897 -8.9131,-28.31598 -8.9131,-55.45216 v -2.35965 q 0,-76.92513 61.4791,-131.6694 41.5926,-30.67568 75.8743,-34.45113 10.5128,-2.35968 27.4246,-2.35968 z M 1086,790 q 0,44.36172 33.5963,77.86898 29.9393,26.42827 62.8484,26.42827 h 6.3997 q 26.5107,0 53.9348,-18.64136 28.3399,-21.47296 38.3966,-54.74426 3.1987,-8.73077 4.5705,-29.96777 0,-43.41786 -32.6823,-76.68916 -30.624,-28.08005 -67.1908,-28.08005 -42.7374,0 -75.8757,36.81082 -13.9407,18.87734 -17.5971,32.09147 Q 1086,773.48233 1086,790 Z"
         style="font-style:normal;font-variant:normal;font-weight:normal;font-stretch:normal;font-size:medium;line-height:1.25;font-family:android;-inkscape-font-specification:android;letter-spacing:0px;word-spacing:0px;fill:#000000;fill-opacity:1;stroke:none;stroke-width:2.4770577"
         id="path4575"
         inkscape:connector-curvature="0" />
      <path
         sodipodi:nodetypes="cccccaasccsaaasaaasccsaa"
         d="m 1540,780 h 70 v 180 h -70 z m 35.3933,-89.32584 C 1548.428,690.62616 1517.8352,699.77542 1500,720 c -18.1377,20.56763 -20,39.35118 -20,79.8 V 960 h -70.115 L 1410,799.8 c 0.029,-40.07009 0.3209,-54.8003 10,-79.8 7.771,-20.07119 21.7705,-37.77307 37.2079,-52.77062 13.572,-13.18523 29.928,-23.90249 47.3198,-31.35718 22.0934,-9.46991 45.2747,-16.06465 70.3,-16.06465 25.1784,0 48.3749,6.54864 70.5297,16.06465 17.3284,7.44294 33.5525,18.23001 47.0931,31.35718 15.5004,15.02716 29.7114,32.6549 37.5495,52.77062 9.733,24.97878 10,39.68727 10,79.8 V 960 h -70 V 799.8 c 0,-40.42714 -1.8989,-59.20014 -20,-79.8 -17.638,-20.07283 -47.8856,-29.27831 -74.6067,-29.32584 z"
         style="font-style:normal;font-variant:normal;font-weight:normal;font-stretch:normal;font-size:medium;line-height:1.25;font-family:android;-inkscape-font-specification:android;letter-spacing:0px;word-spacing:0px;fill:#000000;fill-opacity:1;stroke:none;stroke-width:2.47291255"
         id="path4577"
         inkscape:connector-curvature="0" />
    </g>
  </g>
  <g
     inkscape:groupmode="layer"
     id="layer18"
     inkscape:label="Lettres Bis Noir"
     style="display:inline">
    <g
       id="g4839"
       style="display:inline;fill:#404040;fill-opacity:1">
      <path
         sodipodi:nodetypes="sccsasasccsasasccccc"
         d="m 1190,120 h 160 v 70 h -170 c -37.4054,0 -48.3801,8.76663 -64.3113,25.42754 C 1097.5189,234.42956 1090.0633,264.84395 1090,290 c -0.063,25.15605 7.0808,56.70314 25.6527,75.88936 C 1131.5836,382.34721 1152.7465,390 1180,390 h 170 v 70 h -161.4834 c -45.2131,0 -92.5065,-12.91959 -123.4055,-43.74068 C 1033.4692,384.69715 1021.1534,331.02107 1020,290 c -1.1534,-41.02107 14.4239,-94.20758 46.0852,-125.62522 C 1097.2281,133.47155 1142.8147,120 1190,120 Z m -30,140 h 190 v 60 h -190 z"
         style="font-style:normal;font-variant:normal;font-weight:normal;font-stretch:normal;font-size:medium;line-height:1.25;font-family:android;-inkscape-font-specification:android;letter-spacing:0px;word-spacing:0px;fill:#404040;fill-opacity:1;stroke:none;stroke-width:2.50904131"
         id="path4829"
         inkscape:connector-curvature="0" />
      <path
         sodipodi:nodetypes="ccccccccccccc"
         d="m 1410,120 h 80 l 80,110 80,-110 h 90 l -120,170 120,170 h -90 l -80,-110 -80,110 h -80 l 110,-170 z"
         style="font-style:normal;font-variant:normal;font-weight:normal;font-stretch:normal;font-size:medium;line-height:1.25;font-family:android;-inkscape-font-specification:android;letter-spacing:0px;word-spacing:0px;fill:#404040;fill-opacity:1;stroke:none;stroke-width:2.54939246"
         id="path4831"
         inkscape:connector-curvature="0" />
      <path
         sodipodi:nodetypes="ccccccccc"
         d="m 1800,120 h 320 v 70 h -120 v 270 h -70 V 190 h -130 z"
         style="font-style:normal;font-variant:normal;font-weight:normal;font-stretch:normal;font-size:medium;line-height:1.25;font-family:android;-inkscape-font-specification:android;letter-spacing:0px;word-spacing:0px;fill:#404040;fill-opacity:1;stroke:none;stroke-width:2.60488892"
         id="path4833"
         inkscape:connector-curvature="0" />
      <path
         d="m 1184.9591,620.57593 h 2.2853 q 75.8752,0 129.5831,64.18294 34.7376,48.13719 34.7376,104.7692 v 2.35965 q 0,78.34095 -63.5336,133.08521 -46.1657,35.395 -101.2443,35.395 h -2.2853 q -75.4178,0 -129.1252,-63.71101 -18.7411,-27.13614 -26.2825,-49.78897 -8.9131,-28.31598 -8.9131,-55.45216 v -2.35965 q 0,-76.92513 61.4791,-131.6694 41.5926,-30.67568 75.8743,-34.45113 10.5128,-2.35968 27.4246,-2.35968 z M 1086,790 q 0,44.36172 33.5963,77.86898 29.9393,26.42827 62.8484,26.42827 h 6.3997 q 26.5107,0 53.9348,-18.64136 28.3399,-21.47296 38.3966,-54.74426 3.1987,-8.73077 4.5705,-29.96777 0,-43.41786 -32.6823,-76.68916 -30.624,-28.08005 -67.1908,-28.08005 -42.7374,0 -75.8757,36.81082 -13.9407,18.87734 -17.5971,32.09147 Q 1086,773.48233 1086,790 Z"
         style="font-style:normal;font-variant:normal;font-weight:normal;font-stretch:normal;font-size:medium;line-height:1.25;font-family:android;-inkscape-font-specification:android;letter-spacing:0px;word-spacing:0px;fill:#404040;fill-opacity:1;stroke:none;stroke-width:2.4770577"
         id="path4835"
         inkscape:connector-curvature="0" />
      <path
         sodipodi:nodetypes="cccccaasccsaaasaaasccsaa"
         d="m 1540,780 h 70 v 180 h -70 z m 35.3933,-89.32584 C 1548.428,690.62616 1517.8352,699.77542 1500,720 c -18.1377,20.56763 -20,39.35118 -20,79.8 V 960 h -70.115 L 1410,799.8 c 0.029,-40.07009 0.3209,-54.8003 10,-79.8 7.771,-20.07119 21.7705,-37.77307 37.2079,-52.77062 13.572,-13.18523 29.928,-23.90249 47.3198,-31.35718 22.0934,-9.46991 45.2747,-16.06465 70.3,-16.06465 25.1784,0 48.3749,6.54864 70.5297,16.06465 17.3284,7.44294 33.5525,18.23001 47.0931,31.35718 15.5004,15.02716 29.7114,32.6549 37.5495,52.77062 9.733,24.97878 10,39.68727 10,79.8 V 960 h -70 V 799.8 c 0,-40.42714 -1.8989,-59.20014 -20,-79.8 -17.638,-20.07283 -47.8856,-29.27831 -74.6067,-29.32584 z"
         style="font-style:normal;font-variant:normal;font-weight:normal;font-stretch:normal;font-size:medium;line-height:1.25;font-family:android;-inkscape-font-specification:android;letter-spacing:0px;word-spacing:0px;fill:#404040;fill-opacity:1;stroke:none;stroke-width:2.47291255"
         id="path4837"
         inkscape:connector-curvature="0" />
    </g>
  </g>
  <g
     inkscape:groupmode="layer"
     id="layer19"
     inkscape:label="Lettres Bis Bleu"
     style="display:none">
    <g
       style="display:inline;fill:#33b8cc;fill-opacity:1"
       id="g4821">
      <path
         inkscape:connector-curvature="0"
         id="path4811"
         style="font-style:normal;font-variant:normal;font-weight:normal;font-stretch:normal;font-size:medium;line-height:1.25;font-family:android;-inkscape-font-specification:android;letter-spacing:0px;word-spacing:0px;fill:#33b8cc;fill-opacity:1;stroke:none;stroke-width:2.50904131"
         d="m 1190,120 h 160 v 70 h -170 c -37.4054,0 -48.3801,8.76663 -64.3113,25.42754 C 1097.5189,234.42956 1090.0633,264.84395 1090,290 c -0.063,25.15605 7.0808,56.70314 25.6527,75.88936 C 1131.5836,382.34721 1152.7465,390 1180,390 h 170 v 70 h -161.4834 c -45.2131,0 -92.5065,-12.91959 -123.4055,-43.74068 C 1033.4692,384.69715 1021.1534,331.02107 1020,290 c -1.1534,-41.02107 14.4239,-94.20758 46.0852,-125.62522 C 1097.2281,133.47155 1142.8147,120 1190,120 Z m -30,140 h 190 v 60 h -190 z"
         sodipodi:nodetypes="sccsasasccsasasccccc" />
      <path
         inkscape:connector-curvature="0"
         id="path4813"
         style="font-style:normal;font-variant:normal;font-weight:normal;font-stretch:normal;font-size:medium;line-height:1.25;font-family:android;-inkscape-font-specification:android;letter-spacing:0px;word-spacing:0px;fill:#33b8cc;fill-opacity:1;stroke:none;stroke-width:2.54939246"
         d="m 1410,120 h 80 l 80,110 80,-110 h 90 l -120,170 120,170 h -90 l -80,-110 -80,110 h -80 l 110,-170 z"
         sodipodi:nodetypes="ccccccccccccc" />
      <path
         inkscape:connector-curvature="0"
         id="path4815"
         style="font-style:normal;font-variant:normal;font-weight:normal;font-stretch:normal;font-size:medium;line-height:1.25;font-family:android;-inkscape-font-specification:android;letter-spacing:0px;word-spacing:0px;fill:#33b8cc;fill-opacity:1;stroke:none;stroke-width:2.60488892"
         d="m 1800,120 h 320 v 70 h -120 v 270 h -70 V 190 h -130 z"
         sodipodi:nodetypes="ccccccccc" />
      <path
         inkscape:connector-curvature="0"
         id="path4817"
         style="font-style:normal;font-variant:normal;font-weight:normal;font-stretch:normal;font-size:medium;line-height:1.25;font-family:android;-inkscape-font-specification:android;letter-spacing:0px;word-spacing:0px;fill:#33b8cc;fill-opacity:1;stroke:none;stroke-width:2.4770577"
         d="m 1184.9591,620.57593 h 2.2853 q 75.8752,0 129.5831,64.18294 34.7376,48.13719 34.7376,104.7692 v 2.35965 q 0,78.34095 -63.5336,133.08521 -46.1657,35.395 -101.2443,35.395 h -2.2853 q -75.4178,0 -129.1252,-63.71101 -18.7411,-27.13614 -26.2825,-49.78897 -8.9131,-28.31598 -8.9131,-55.45216 v -2.35965 q 0,-76.92513 61.4791,-131.6694 41.5926,-30.67568 75.8743,-34.45113 10.5128,-2.35968 27.4246,-2.35968 z M 1086,790 q 0,44.36172 33.5963,77.86898 29.9393,26.42827 62.8484,26.42827 h 6.3997 q 26.5107,0 53.9348,-18.64136 28.3399,-21.47296 38.3966,-54.74426 3.1987,-8.73077 4.5705,-29.96777 0,-43.41786 -32.6823,-76.68916 -30.624,-28.08005 -67.1908,-28.08005 -42.7374,0 -75.8757,36.81082 -13.9407,18.87734 -17.5971,32.09147 Q 1086,773.48233 1086,790 Z" />
      <path
         inkscape:connector-curvature="0"
         id="path4819"
         style="font-style:normal;font-variant:normal;font-weight:normal;font-stretch:normal;font-size:medium;line-height:1.25;font-family:android;-inkscape-font-specification:android;letter-spacing:0px;word-spacing:0px;fill:#33b8cc;fill-opacity:1;stroke:none;stroke-width:2.47291255"
         d="m 1540,780 h 70 v 180 h -70 z m 35.3933,-89.32584 C 1548.428,690.62616 1517.8352,699.77542 1500,720 c -18.1377,20.56763 -20,39.35118 -20,79.8 V 960 h -70.115 L 1410,799.8 c 0.029,-40.07009 0.3209,-54.8003 10,-79.8 7.771,-20.07119 21.7705,-37.77307 37.2079,-52.77062 13.572,-13.18523 29.928,-23.90249 47.3198,-31.35718 22.0934,-9.46991 45.2747,-16.06465 70.3,-16.06465 25.1784,0 48.3749,6.54864 70.5297,16.06465 17.3284,7.44294 33.5525,18.23001 47.0931,31.35718 15.5004,15.02716 29.7114,32.6549 37.5495,52.77062 9.733,24.97878 10,39.68727 10,79.8 V 960 h -70 V 799.8 c 0,-40.42714 -1.8989,-59.20014 -20,-79.8 -17.638,-20.07283 -47.8856,-29.27831 -74.6067,-29.32584 z"
         sodipodi:nodetypes="cccccaasccsaaasaaasccsaa" />
    </g>
  </g>
</svg>
