<?xml version="1.0" encoding="UTF-8" standalone="no"?>
<!-- Created with Inkscape (http://www.inkscape.org/) -->

<svg
   xmlns:osb="http://www.openswatchbook.org/uri/2009/osb"
   xmlns:dc="http://purl.org/dc/elements/1.1/"
   xmlns:cc="http://creativecommons.org/ns#"
   xmlns:rdf="http://www.w3.org/1999/02/22-rdf-syntax-ns#"
   xmlns:svg="http://www.w3.org/2000/svg"
   xmlns="http://www.w3.org/2000/svg"
   xmlns:sodipodi="http://sodipodi.sourceforge.net/DTD/sodipodi-0.dtd"
   xmlns:inkscape="http://www.inkscape.org/namespaces/inkscape"
   version="1.1"
   id="svg3713"
   width="1080"
   height="1080"
   viewBox="0 0 1080 1080"
   sodipodi:docname="NextDom_Square.svg"
   inkscape:version="0.92.3 (2405546, 2018-03-11)"
   inkscape:export-filename="C:\Users\cyril\Google Drive\Jeedom\Dev\NextDom\NextDom_Square_AlphaBlue.png"
   inkscape:export-xdpi="96"
   inkscape:export-ydpi="96">
  <metadata
     id="metadata3719">
    <rdf:RDF>
      <cc:Work
         rdf:about="">
        <dc:format>image/svg+xml</dc:format>
        <dc:type
           rdf:resource="http://purl.org/dc/dcmitype/StillImage" />
        <dc:title />
      </cc:Work>
    </rdf:RDF>
  </metadata>
  <defs
     id="defs3717">
    <linearGradient
       id="linearGradient4832"
       osb:paint="solid">
      <stop
         style="stop-color:#33b8cc;stop-opacity:1;"
         offset="0"
         id="stop4830" />
    </linearGradient>
  </defs>
  <sodipodi:namedview
     pagecolor="#ffffff"
     bordercolor="#666666"
     borderopacity="1"
     objecttolerance="10"
     gridtolerance="10"
     guidetolerance="10"
     inkscape:pageopacity="0"
     inkscape:pageshadow="2"
     inkscape:window-width="1920"
     inkscape:window-height="1057"
     id="namedview3715"
     showgrid="true"
     inkscape:zoom="0.41111111"
     inkscape:cx="365.45838"
     inkscape:cy="749.80504"
     inkscape:window-x="-8"
     inkscape:window-y="-8"
     inkscape:window-maximized="1"
     inkscape:current-layer="layer9">
    <inkscape:grid
       type="xygrid"
       id="grid5025" />
  </sodipodi:namedview>
  <g
     inkscape:groupmode="layer"
     id="layer8"
     inkscape:label="Fond Bleu"
     style="display:none">
    <path
       inkscape:connector-curvature="0"
       id="path5150"
       d="m 40,1060 h -1 c -4.7726,0 -9.6253,-2.6253 -13,-6 -3.3747,-3.3747 -6,-8.2274 -6,-13 V 1040 40 l -0.027,-1.042746 c -0.120091,-4.637936 2.8035,-9.728074 6.0197,-12.944282 3.215,-3.214992 8.654501,-5.855194 13.025086,-5.984021 L 40,20 h 1000 l 1.007,-0.0159 c 4.7903,-0.07566 9.6437,2.615876 13.0169,5.999279 3.3728,3.383011 5.8775,8.280179 5.9592,13.033518 L 1060,40 v 1000 1.0269 c 0.01,4.7726 -2.6479,9.6018 -6.0182,12.9731 -3.358,3.359 -8.1514,6 -12.924,6 H 1040 Z"
       style="fill:#32b7cb"
       sodipodi:nodetypes="csasccsssccsasccsascc" />
  </g>
  <g
     inkscape:groupmode="layer"
     id="layer11"
     inkscape:label="Fond Lettres Alpha"
     style="display:none">
    <path
       style="display:inline;fill:#32b7cb"
       d="M 1041.0078,19.984375 1040,20 H 580 v 1040 h 460 1.0586 c 4.7726,0 9.5658,-2.641 12.9238,-6 3.3703,-3.3713 6.0276,-8.2001 6.0176,-12.9727 V 1040 40 l -0.018,-0.982422 c -0.082,-4.753339 -2.5862,-9.652145 -5.959,-13.035156 -3.3732,-3.383403 -8.2253,-6.073707 -13.0156,-5.998047 z M 620,120 h 70 l -70,70 z m 171.29883,0.0547 c 8.55439,-0.0465 17.12682,0.8698 25.59179,2.0957 8.79203,1.27327 17.52154,3.18492 26.01563,5.78711 7.35505,2.25324 14.54772,5.10925 21.46875,8.4668 6.82347,3.31022 13.38763,7.1864 19.65625,11.45508 6.82895,4.65023 13.31392,9.83106 19.45898,15.35351 5.69518,5.11815 11.04085,10.64091 16.06641,16.41797 3.87775,4.45761 7.53072,9.13008 10.83008,14.03125 3.57817,5.31535 6.85898,10.85321 9.67773,16.60742 4.01406,8.19432 7.4407,16.7015 10.23828,25.38672 2.91222,9.04112 5.12142,18.32554 6.77149,27.67969 C 958.62747,272.1412 959.9809,282.01257 960,290 V 460 H 890 V 290 c 0.0197,-8.71499 -1.25554,-18.22223 -3.73047,-26.94531 -1.95195,-6.8798 -5.20616,-13.36484 -8.65625,-19.62891 -3.10544,-5.63831 -6.72543,-11.02173 -10.76758,-16.03125 -3.87903,-4.80737 -8.22465,-9.25922 -12.85351,-13.34961 -4.73008,-4.17983 -9.7256,-8.13461 -15.1543,-11.35547 -6.0312,-3.57832 -12.42298,-6.71722 -19.14062,-8.73047 -7.58768,-2.27399 -15.56079,-3.50425 -23.48047,-3.65429 -6.85203,-0.12981 -13.73615,0.88267 -20.42188,2.38867 -6.36899,1.43464 -12.63489,3.51977 -18.54883,6.28516 -5.62777,2.63157 -10.87055,6.0771 -15.9082,9.71289 -4.56353,3.2936 -8.91467,6.9192 -12.88867,10.90429 -4.27316,4.28508 -8.30998,8.87121 -11.6875,13.89258 -3.55915,5.2914 -6.49408,11.02737 -8.91797,16.92578 -2.56557,6.2432 -4.46783,12.77562 -5.88477,19.375 C 700.88581,274.78735 700,285 700,285 V 460 H 630.05078 L 630,285 c 0,0 -0.10488,-3.33664 0,-5 0.42285,-6.70657 1.32706,-13.38889 2.53125,-20 1.08807,-5.97359 2.51402,-11.89316 4.23242,-17.7168 2.18359,-7.40013 4.61373,-14.75783 7.70703,-21.82617 3.39792,-7.76441 7.25976,-15.37466 11.86719,-22.48828 5.26932,-8.13555 11.36142,-15.76144 17.91797,-22.90039 6.82404,-7.43019 14.21827,-14.39384 22.16602,-20.60742 7.27242,-5.68562 15.11806,-10.66022 23.19335,-15.13282 6.58129,-3.64512 13.42123,-6.88434 20.48243,-9.48046 6.67888,-2.45556 13.60741,-4.24148 20.56836,-5.71875 8.88969,-1.88659 17.88804,-3.63849 26.96875,-3.99414 1.22096,-0.0478 2.442,-0.0734 3.66406,-0.0801 z M 630,620 h 140 c 40.07991,0 67.88336,4.27863 97.99805,18.33203 21.26216,9.92224 38.76083,25.1069 54.36328,44.71485 C 945.8941,712.62105 958.92419,752.22085 960,790 c 1.00637,35.34073 -9.49224,72.71538 -29.45898,101.89258 -17.99145,26.29072 -46.49424,45.90104 -75.96875,57.99023 C 829.83462,960.02913 794.65452,960 775,960 H 630 V 760 h 65 v 135 h 85 c 36.21601,0.90914 63.41495,-9.09875 85,-30 18.96239,-18.36167 29.8936,-47.4147 28.74414,-73.78516 -1.3628,-31.26487 -17.52911,-64.14 -41.5625,-84.18359 C 831.63442,689.89509 812.54422,685 775,685 H 630 Z"
       id="path5386"
       inkscape:connector-curvature="0"
       sodipodi:nodetypes="cccccsscccccccccccssscssssssccccssssssscsssscscccccscsssccsssccssssssscccccsssscc" />
  </g>
  <g
     inkscape:groupmode="layer"
     id="layer10"
     inkscape:label="Fond Maison Alpha"
     style="display:none">
    <path
       style="display:inline;fill:#32b7cb"
       d="M 600,20 H 40 l -0.982422,0.0293 c -4.370585,0.128827 -9.810391,2.769383 -13.02539,5.984375 -3.2162,3.216208 -6.139623,8.305423 -6.019532,12.943359 L 20,40 v 1000 1 c 0,4.7726 2.6253,9.6253 6,13 3.3747,3.3747 8.2274,6 13,6 h 1 560 z M 270,120 h 150 v 70 h -40 v 80 L 560,120 v 90 L 210,500 H 340 V 960 H 120 V 890 H 270 V 570 H 120 V 485 L 310,330 V 190 h -40 z"
       id="path5328"
       inkscape:export-xdpi="96"
       inkscape:export-ydpi="96"
       inkscape:connector-curvature="0"
       sodipodi:nodetypes="cccccccsssccccccccccccccccccccccc" />
  </g>
  <g
     inkscape:groupmode="layer"
     id="layer5"
     inkscape:label="Maison Blanc"
     style="display:none">
    <path
       id="path5281"
       d="M 340,960 V 500 H 210 L 560,210 V 120 L 380,270 v -80 h 40 V 120 H 270 v 70 h 40 V 330 L 120,485 v 85 H 270 V 890 H 120 v 70 z"
       style="display:inline;fill:#ffffff;fill-opacity:1;stroke-width:1.28406775"
       inkscape:connector-curvature="0"
       sodipodi:nodetypes="cccccccccccccccccccc" />
  </g>
  <g
     inkscape:groupmode="layer"
     id="layer4"
     inkscape:label="Maison Noir"
     style="display:none">
    <path
       id="path5111"
       d="M 340,960 V 500 H 210 L 560,210 V 120 L 380,270 v -80 h 40 V 120 H 270 v 70 h 40 V 330 L 120,485 v 85 H 270 V 890 H 120 v 70 z"
       style="display:inline;fill:#404040;fill-opacity:1;stroke-width:1.28406775"
       inkscape:connector-curvature="0"
       sodipodi:nodetypes="cccccccccccccccccccc" />
  </g>
  <g
     inkscape:groupmode="layer"
     id="layer13"
     inkscape:label="Maison Halo 2"
     style="display:none">
    <path
       id="path5525"
       d="M 350,970 V 510 H 220 L 570,220 V 130 L 390,280 v -80 h 40 V 130 H 280 v 70 h 40 V 340 L 130,495 v 85 H 280 V 900 H 130 v 70 z"
       style="display:inline;fill:#33b8cc;fill-opacity:1;stroke-width:1.28406775"
       inkscape:connector-curvature="0"
       sodipodi:nodetypes="cccccccccccccccccccc" />
  </g>
  <g
     inkscape:groupmode="layer"
     id="layer12"
     inkscape:label="Maison Halo 1"
     style="display:none">
    <path
       id="path5111-0"
       d="M 340,960 V 500 H 210 L 560,210 V 120 L 380,270 v -80 h 40 V 120 H 270 v 70 h 40 V 330 L 120,485 v 85 H 270 V 890 H 120 v 70 z"
       style="display:inline;fill:#000000;fill-opacity:1;stroke-width:1.28406775"
       inkscape:connector-curvature="0"
       sodipodi:nodetypes="cccccccccccccccccccc" />
  </g>
  <g
     inkscape:groupmode="layer"
     id="layer1"
     inkscape:label="Maison Bleu"
     style="display:inline">
    <flowRoot
       xml:space="preserve"
       id="flowRoot4888"
       style="font-style:normal;font-weight:normal;font-size:40px;line-height:1.25;font-family:sans-serif;letter-spacing:0px;word-spacing:0px;fill:#000000;fill-opacity:1;stroke:none"
       transform="matrix(1.4868843,0,0,1.4868843,-197.38724,-246.0771)"><flowRegion
         id="flowRegion4890"><rect
           id="rect4892"
           width="440.31729"
           height="309.59811"
           x="813.55499"
           y="70.36618" /></flowRegion><flowPara
         id="flowPara4894" /></flowRoot>    <path
       sodipodi:nodetypes="cccccccccccccccccccc"
       inkscape:connector-curvature="0"
       style="display:inline;fill:#33b8cc;fill-opacity:1;stroke-width:1.28406775"
       d="M 340,960 V 500 H 210 L 560,210 V 120 L 380,270 v -80 h 40 V 120 H 270 v 70 h 40 V 330 L 120,485 v 85 H 270 V 890 H 120 v 70 z"
       id="path5278" />
  </g>
  <g
     inkscape:groupmode="layer"
     id="layer6"
     inkscape:label="Lettres Blanc"
     style="display:none;opacity:1">
    <g
       id="g5384"
       transform="translate(-8,-8)">
      <g
         id="g5354">
        <path
           sodipodi:nodetypes="cccc"
           inkscape:connector-curvature="0"
           style="display:inline;fill:#ffffff;fill-opacity:1;stroke-width:1.17232883"
           d="m 628,198 70,-70 h -70 z"
           id="path4912-00" />
        <path
           sodipodi:nodetypes="ccaaaaaaaaaaaaaaccccaaaaaaaaaaaaaaaaaaaaaccc"
           inkscape:connector-curvature="0"
           style="display:inline;fill:#ffffff;fill-opacity:1;stroke-width:1.20804572"
           d="M 708,468 V 293 c 0,0 0.88588,-10.21267 1.95905,-15.21096 1.41694,-6.59938 3.31991,-13.13198 5.88548,-19.37518 2.42389,-5.89841 5.35814,-11.63433 8.91729,-16.92573 3.37752,-5.02137 7.41336,-9.60814 11.68652,-13.89322 3.974,-3.98509 8.32671,-7.61074 12.89024,-10.90434 5.03765,-3.63579 10.27919,-7.08133 15.90696,-9.7129 5.91394,-2.76539 12.18129,-4.84916 18.55028,-6.2838 6.68573,-1.506 13.56837,-2.51963 20.4204,-2.38982 7.91968,0.15004 15.89299,1.38018 23.48067,3.65417 6.71764,2.01325 13.10984,5.15315 19.14104,8.73147 5.4287,3.22086 10.42514,7.17453 15.15522,11.35436 4.62886,4.09039 8.97279,8.54364 12.85182,13.35101 4.04215,5.00952 7.66257,10.39163 10.76801,16.02994 3.45009,6.26407 6.70531,12.74996 8.65726,19.62976 C 896.74517,279.77784 898.0197,289.28501 898,298 v 170 h 70 V 298 c -0.0191,-7.98743 -1.37244,-17.85833 -2.92569,-26.66359 -1.65007,-9.35415 -3.85904,-18.63839 -6.77126,-27.67951 -2.79758,-8.68522 -6.22358,-17.1932 -10.23764,-25.38752 -2.81875,-5.75421 -6.10119,-11.29236 -9.67936,-16.60771 -3.29936,-4.90117 -6.95172,-9.57405 -10.82947,-14.03166 -5.02556,-5.77706 -10.37136,-11.29958 -16.06654,-16.41773 -6.14506,-5.52245 -12.62997,-10.70177 -19.45892,-15.35201 -6.26862,-4.26868 -12.83353,-8.14657 -19.657,-11.45679 -6.92103,-3.35755 -14.11314,-6.21324 -21.46819,-8.46648 -8.49409,-2.60219 -17.22322,-4.51429 -26.01525,-5.78756 -9.67427,-1.40103 -19.48862,-2.39674 -29.25633,-2.01419 -9.08071,0.35565 -18.07918,2.10741 -26.96887,3.994 -6.96095,1.47727 -13.88872,3.26354 -20.5676,5.7191 -7.0612,2.59612 -13.90166,5.83391 -20.48295,9.47904 -8.07529,4.4726 -15.91977,9.44885 -23.1922,15.13447 -7.94774,6.21358 -15.34294,13.17568 -22.16698,20.60587 -6.55655,7.13895 -12.64927,14.76643 -17.91859,22.90198 -4.60743,7.11362 -8.46903,14.72253 -11.86695,22.48694 -3.0933,7.06834 -5.52362,14.42575 -7.70721,21.82588 -1.7184,5.82364 -3.14284,11.74388 -4.23091,17.71747 -1.20419,6.61111 -2.10924,13.29343 -2.53209,20 -0.10488,1.66336 0,5 0,5 l 0.05,175 z"
           id="path4910-5" />
        <g
           aria-label="D"
           transform="matrix(1.1733132,0,0,1.25338,-138.26205,-132.0747)"
           style="font-style:normal;font-weight:normal;font-size:81.58670807px;line-height:1.25;font-family:sans-serif;letter-spacing:0px;word-spacing:0px;display:inline;fill:#ffffff;fill-opacity:1;stroke:none;stroke-width:2.03966761"
           id="text4898-5">
          <path
             d="m 780.91856,606.42 c 34.1596,0 57.85557,3.41333 83.52194,14.62573 18.12147,7.91639 33.03529,20.03132 46.33306,35.67538 20.05668,23.59553 31.16269,55.19032 32.07959,85.33214 0.85772,28.19634 -8.09052,58.01488 -25.10792,81.29369 -15.33389,20.97586 -39.62619,36.62169 -64.74694,46.26696 -21.08359,8.09517 -51.067,8.0726 -67.8183,8.0726 H 661.59833 V 718.11797 H 716.997 v 107.70875 h 72.44443 c 30.86645,0.72535 54.04775,-7.25936 72.44442,-23.93527 16.1614,-14.64972 25.47803,-37.82959 24.49836,-58.86907 -1.1615,-24.94445 -14.93926,-51.17308 -35.42262,-67.16471 -17.51213,-13.67196 -33.78313,-17.5779 -65.7816,-17.5779 H 661.59833 V 606.42 Z"
             style="font-style:normal;font-variant:normal;font-weight:normal;font-stretch:normal;font-size:391.61621094px;font-family:android;-inkscape-font-specification:'android, Normal';font-variant-ligatures:normal;font-variant-caps:normal;font-variant-numeric:normal;font-feature-settings:normal;text-align:start;writing-mode:lr-tb;text-anchor:start;fill:#ffffff;fill-opacity:1;stroke-width:2.03269672"
             id="path4900-9"
             inkscape:connector-curvature="0"
             sodipodi:nodetypes="sasaaascccccaaasccs" />
        </g>
      </g>
    </g>
  </g>
  <g
     inkscape:groupmode="layer"
     id="layer9"
     inkscape:label="Lettres Halo 2"
     style="display:none">
    <path
       id="path5287"
       d="m 628,198 70,-70 h -70 z"
       style="display:inline;opacity:1;fill:#ffffff;fill-opacity:1;stroke-width:1.17232883"
       inkscape:connector-curvature="0"
       sodipodi:nodetypes="cccc" />
    <path
       id="path5289"
       d="M 708,468 V 293 c 0,0 0.88588,-10.21267 1.95905,-15.21096 1.41694,-6.59938 3.31991,-13.13198 5.88548,-19.37518 2.42389,-5.89841 5.35814,-11.63433 8.91729,-16.92573 3.37752,-5.02137 7.41336,-9.60814 11.68652,-13.89322 3.974,-3.98509 8.32671,-7.61074 12.89024,-10.90434 5.03765,-3.63579 10.27919,-7.08133 15.90696,-9.7129 5.91394,-2.76539 12.18129,-4.84916 18.55028,-6.2838 6.68573,-1.506 13.56837,-2.51963 20.4204,-2.38982 7.91968,0.15004 15.89299,1.38018 23.48067,3.65417 6.71764,2.01325 13.10984,5.15315 19.14104,8.73147 5.4287,3.22086 10.42514,7.17453 15.15522,11.35436 4.62886,4.09039 8.97279,8.54364 12.85182,13.35101 4.04215,5.00952 7.66257,10.39163 10.76801,16.02994 3.45009,6.26407 6.70531,12.74996 8.65726,19.62976 C 896.74517,279.77784 898.0197,289.28501 898,298 v 170 h 70 V 298 c -0.0191,-7.98743 -1.37244,-17.85833 -2.92569,-26.66359 -1.65007,-9.35415 -3.85904,-18.63839 -6.77126,-27.67951 -2.79758,-8.68522 -6.22358,-17.1932 -10.23764,-25.38752 -2.81875,-5.75421 -6.10119,-11.29236 -9.67936,-16.60771 -3.29936,-4.90117 -6.95172,-9.57405 -10.82947,-14.03166 -5.02556,-5.77706 -10.37136,-11.29958 -16.06654,-16.41773 -6.14506,-5.52245 -12.62997,-10.70177 -19.45892,-15.35201 -6.26862,-4.26868 -12.83353,-8.14657 -19.657,-11.45679 -6.92103,-3.35755 -14.11314,-6.21324 -21.46819,-8.46648 -8.49409,-2.60219 -17.22322,-4.51429 -26.01525,-5.78756 -9.67427,-1.40103 -19.48862,-2.39674 -29.25633,-2.01419 -9.08071,0.35565 -18.07918,2.10741 -26.96887,3.994 -6.96095,1.47727 -13.88872,3.26354 -20.5676,5.7191 -7.0612,2.59612 -13.90166,5.83391 -20.48295,9.47904 -8.07529,4.4726 -15.91977,9.44885 -23.1922,15.13447 -7.94774,6.21358 -15.34294,13.17568 -22.16698,20.60587 -6.55655,7.13895 -12.64927,14.76643 -17.91859,22.90198 -4.60743,7.11362 -8.46903,14.72253 -11.86695,22.48694 -3.0933,7.06834 -5.52362,14.42575 -7.70721,21.82588 -1.7184,5.82364 -3.14284,11.74388 -4.23091,17.71747 -1.20419,6.61111 -2.10924,13.29343 -2.53209,20 -0.10488,1.66336 0,5 0,5 l 0.05,175 z"
       style="display:inline;opacity:1;fill:#ffffff;fill-opacity:1;stroke-width:1.20804572"
       inkscape:connector-curvature="0"
       sodipodi:nodetypes="ccaaaaaaaaaaaaaaccccaaaaaaaaaaaaaaaaaaaaaccc" />
    <g
       id="g5293"
       style="font-style:normal;font-weight:normal;font-size:81.58670807px;line-height:1.25;font-family:sans-serif;letter-spacing:0px;word-spacing:0px;display:inline;opacity:1;fill:#ffffff;fill-opacity:1;stroke:none;stroke-width:2.03966761"
       transform="matrix(1.1733132,0,0,1.25338,-138.26205,-132.0747)"
       aria-label="D">
      <path
         sodipodi:nodetypes="sasaaascccccaaasccs"
         inkscape:connector-curvature="0"
         id="path5291"
         style="font-style:normal;font-variant:normal;font-weight:normal;font-stretch:normal;font-size:391.61621094px;font-family:android;-inkscape-font-specification:'android, Normal';font-variant-ligatures:normal;font-variant-caps:normal;font-variant-numeric:normal;font-feature-settings:normal;text-align:start;writing-mode:lr-tb;text-anchor:start;fill:#ffffff;fill-opacity:1;stroke-width:2.03269672"
         d="m 780.91856,606.42 c 34.1596,0 57.85557,3.41333 83.52194,14.62573 18.12147,7.91639 33.03529,20.03132 46.33306,35.67538 20.05668,23.59553 31.16269,55.19032 32.07959,85.33214 0.85772,28.19634 -8.09052,58.01488 -25.10792,81.29369 -15.33389,20.97586 -39.62619,36.62169 -64.74694,46.26696 -21.08359,8.09517 -51.067,8.0726 -67.8183,8.0726 H 661.59833 V 718.11797 H 716.997 v 107.70875 h 72.44443 c 30.86645,0.72535 54.04775,-7.25936 72.44442,-23.93527 16.1614,-14.64972 25.47803,-37.82959 24.49836,-58.86907 -1.1615,-24.94445 -14.93926,-51.17308 -35.42262,-67.16471 -17.51213,-13.67196 -33.78313,-17.5779 -65.7816,-17.5779 H 661.59833 V 606.42 Z" />
    </g>
    <path
       id="path5295"
       d="m 630,199.99999 70,-70 h -70 z"
       style="display:inline;fill:#33b8cc;fill-opacity:1;stroke-width:1.17232883"
       inkscape:connector-curvature="0"
       sodipodi:nodetypes="cccc" />
    <path
       id="path5297"
       d="m 710,469.99999 v -175 c 0,0 0.88588,-10.21267 1.95905,-15.21096 1.41694,-6.59938 3.31991,-13.13198 5.88548,-19.37518 2.42389,-5.89841 5.35814,-11.63433 8.91729,-16.92573 3.37752,-5.02137 7.41336,-9.60814 11.68652,-13.89322 3.974,-3.98509 8.32671,-7.61074 12.89024,-10.90434 5.03765,-3.63579 10.27919,-7.08133 15.90696,-9.7129 5.91394,-2.76539 12.18129,-4.84916 18.55028,-6.2838 6.68573,-1.506 13.56837,-2.51963 20.4204,-2.38982 7.91968,0.15004 15.89299,1.38018 23.48067,3.65417 6.71764,2.01325 13.10984,5.15315 19.14104,8.73147 5.4287,3.22086 10.42514,7.17453 15.15522,11.35436 4.62886,4.09039 8.97279,8.54364 12.85182,13.35101 4.04215,5.00952 7.66257,10.39163 10.76801,16.02994 3.45009,6.26407 6.70531,12.74996 8.65726,19.62976 2.47493,8.72308 3.74946,18.23025 3.72976,26.94524 v 170 h 70 v -170 c -0.0191,-7.98743 -1.37244,-17.85833 -2.92569,-26.66359 -1.65007,-9.35415 -3.85904,-18.63839 -6.77126,-27.67951 -2.79758,-8.68522 -6.22358,-17.1932 -10.23764,-25.38752 -2.81875,-5.75421 -6.10119,-11.29236 -9.67936,-16.60771 -3.29936,-4.90117 -6.95172,-9.57405 -10.82947,-14.03166 -5.02556,-5.77706 -10.37136,-11.29958 -16.06654,-16.41773 -6.14506,-5.52245 -12.62997,-10.70177 -19.45892,-15.35201 -6.26862,-4.26868 -12.83353,-8.14657 -19.657,-11.45679 -6.92103,-3.35755 -14.11314,-6.21324 -21.46819,-8.46648 -8.49409,-2.60219 -17.22322,-4.51429 -26.01525,-5.78756 -9.67427,-1.40103 -19.48862,-2.39674 -29.25633,-2.01419 -9.08071,0.35565 -18.07918,2.10741 -26.96887,3.994 -6.96095,1.47727 -13.88872,3.26354 -20.5676,5.7191 -7.0612,2.59612 -13.90166,5.83391 -20.48295,9.47904 -8.07529,4.4726 -15.91977,9.44885 -23.1922,15.13447 -7.94774,6.21358 -15.34294,13.17568 -22.16698,20.60587 -6.55655,7.13895 -12.64927,14.76643 -17.91859,22.90198 -4.60743,7.11362 -8.46903,14.72253 -11.86695,22.48694 -3.0933,7.06834 -5.52362,14.42575 -7.70721,21.82588 -1.7184,5.82364 -3.14284,11.74388 -4.23091,17.71747 -1.20419,6.61111 -2.10924,13.29343 -2.53209,20 -0.10488,1.66336 0,5 0,5 l 0.05,175 z"
       style="display:inline;fill:#33b8cc;fill-opacity:1;stroke-width:1.20804572"
       inkscape:connector-curvature="0"
       sodipodi:nodetypes="ccaaaaaaaaaaaaaaccccaaaaaaaaaaaaaaaaaaaaaccc" />
    <g
       id="g5301"
       style="font-style:normal;font-weight:normal;font-size:81.58670807px;line-height:1.25;font-family:sans-serif;letter-spacing:0px;word-spacing:0px;display:inline;fill:#33b8cc;fill-opacity:1;stroke:none;stroke-width:2.03966761"
       transform="matrix(1.1733132,0,0,1.25338,-138.26205,-132.0747)"
       aria-label="D">
      <path
         sodipodi:nodetypes="sasaaascccccaaasccs"
         inkscape:connector-curvature="0"
         id="path5299"
         style="font-style:normal;font-variant:normal;font-weight:normal;font-stretch:normal;font-size:391.61621094px;font-family:android;-inkscape-font-specification:'android, Normal';font-variant-ligatures:normal;font-variant-caps:normal;font-variant-numeric:normal;font-feature-settings:normal;text-align:start;writing-mode:lr-tb;text-anchor:start;fill:#33b8cc;fill-opacity:1;stroke-width:2.03269672"
         d="m 782.62313,608.01568 c 34.1596,0 57.85557,3.41333 83.52194,14.62573 18.12147,7.91639 33.03529,20.03132 46.33306,35.67538 20.05668,23.59553 31.16269,55.19032 32.07959,85.33214 0.85772,28.19634 -8.09052,58.01488 -25.10792,81.29369 -15.33389,20.97586 -39.62619,36.62169 -64.74694,46.26696 -21.08359,8.09517 -51.067,8.0726 -67.8183,8.0726 H 663.3029 V 719.71365 h 55.39867 V 827.4224 H 791.146 c 30.86645,0.72535 54.04775,-7.25936 72.44442,-23.93527 16.1614,-14.64972 25.47803,-37.82959 24.49836,-58.86907 -1.1615,-24.94445 -14.93926,-51.17308 -35.42262,-67.16471 -17.51213,-13.67196 -33.78313,-17.5779 -65.7816,-17.5779 H 663.3029 v -51.85977 z" />
    </g>
    <path
       inkscape:connector-curvature="0"
       id="path5285"
       d="m 1042.9882,247.28618 c 0.015,-0.35421 0.087,-0.42626 0.1837,-0.1837 0.088,0.21949 0.077,0.48173 -0.024,0.58277 -0.101,0.10103 -0.1729,-0.0786 -0.1597,-0.39907 z"
       style="fill:#33b8cc;fill-opacity:1;stroke-width:0.30405405" />
    <path
       inkscape:connector-curvature="0"
       id="path5303"
       d="m 1042.9882,208.36726 c 0.015,-0.35421 0.087,-0.42626 0.1837,-0.1837 0.088,0.21949 0.077,0.48173 -0.024,0.58277 -0.101,0.10103 -0.1729,-0.0786 -0.1597,-0.39907 z"
       style="fill:#33b8cc;fill-opacity:1;stroke-width:0.30405405" />
    <path
       inkscape:connector-curvature="0"
       id="path5305"
       d="m 1042.9882,204.41456 c 0.015,-0.35421 0.087,-0.42626 0.1837,-0.1837 0.088,0.21948 0.077,0.48173 -0.024,0.58277 -0.101,0.10103 -0.1729,-0.0785 -0.1597,-0.39907 z"
       style="fill:#33b8cc;fill-opacity:1;stroke-width:0.30405405" />
  </g>
  <g
     inkscape:groupmode="layer"
     id="layer14"
     inkscape:label="Lettres Halo 1"
     style="display:none">
    <path
       id="path5529"
       d="m 620,190 70,-70 h -70 z"
       style="display:inline;fill:#000000;fill-opacity:1;stroke-width:1.17232883"
       inkscape:connector-curvature="0"
       sodipodi:nodetypes="cccc" />
    <path
       id="path5531"
       d="M 700,460 V 285 c 0,0 0.88588,-10.21267 1.95905,-15.21096 1.41694,-6.59938 3.31991,-13.13198 5.88548,-19.37518 2.42389,-5.89841 5.35814,-11.63433 8.91729,-16.92573 3.37752,-5.02137 7.41336,-9.60814 11.68652,-13.89322 3.974,-3.98509 8.32671,-7.61074 12.89024,-10.90434 5.03765,-3.63579 10.27919,-7.08133 15.90696,-9.7129 5.91394,-2.76539 12.18129,-4.84916 18.55028,-6.2838 6.68573,-1.506 13.56837,-2.51963 20.4204,-2.38982 7.91968,0.15004 15.89299,1.38018 23.48067,3.65417 6.71764,2.01325 13.10984,5.15315 19.14104,8.73147 5.4287,3.22086 10.42514,7.17453 15.15522,11.35436 4.62886,4.09039 8.97279,8.54364 12.85182,13.35101 4.04215,5.00952 7.66257,10.39163 10.76801,16.02994 3.45009,6.26407 6.70531,12.74996 8.65726,19.62976 C 888.74517,271.77784 890.0197,281.28501 890,290 v 170 h 70 V 290 c -0.0191,-7.98743 -1.37244,-17.85833 -2.92569,-26.66359 -1.65007,-9.35415 -3.85904,-18.63839 -6.77126,-27.67951 -2.79758,-8.68522 -6.22358,-17.1932 -10.23764,-25.38752 -2.81875,-5.75421 -6.10119,-11.29236 -9.67936,-16.60771 -3.29936,-4.90117 -6.95172,-9.57405 -10.82947,-14.03166 -5.02556,-5.77706 -10.37136,-11.29958 -16.06654,-16.41773 -6.14506,-5.52245 -12.62997,-10.70177 -19.45892,-15.35201 -6.26862,-4.26868 -12.83353,-8.14657 -19.657,-11.45679 -6.92103,-3.35755 -14.11314,-6.21324 -21.46819,-8.46648 -8.49409,-2.60219 -17.22322,-4.51429 -26.01525,-5.78756 -9.67427,-1.40103 -19.48862,-2.39674 -29.25633,-2.01419 -9.08071,0.35565 -18.07918,2.10741 -26.96887,3.994 -6.96095,1.47727 -13.88872,3.26354 -20.5676,5.7191 -7.0612,2.59612 -13.90166,5.83391 -20.48295,9.47904 -8.07529,4.4726 -15.91977,9.44885 -23.1922,15.13447 -7.94774,6.21358 -15.34294,13.17568 -22.16698,20.60587 -6.55655,7.13895 -12.64927,14.76643 -17.91859,22.90198 -4.60743,7.11362 -8.46903,14.72253 -11.86695,22.48694 -3.0933,7.06834 -5.52362,14.42575 -7.70721,21.82588 -1.7184,5.82364 -3.14284,11.74388 -4.23091,17.71747 -1.20419,6.61111 -2.10924,13.29343 -2.53209,20 -0.10488,1.66336 0,5 0,5 l 0.05,175 z"
       style="display:inline;fill:#000000;fill-opacity:1;stroke-width:1.20804572"
       inkscape:connector-curvature="0"
       sodipodi:nodetypes="ccaaaaaaaaaaaaaaccccaaaaaaaaaaaaaaaaaaaaaccc" />
    <g
       id="g5535"
       style="font-style:normal;font-weight:normal;font-size:81.58670807px;line-height:1.25;font-family:sans-serif;letter-spacing:0px;word-spacing:0px;display:inline;fill:#000000;fill-opacity:1;stroke:none;stroke-width:2.03966761"
       transform="matrix(1.1733132,0,0,1.25338,-146.26205,-140.0747)"
       aria-label="D">
      <path
         sodipodi:nodetypes="sasaaascccccaaasccs"
         inkscape:connector-curvature="0"
         id="path5533"
         style="font-style:normal;font-variant:normal;font-weight:normal;font-stretch:normal;font-size:391.61621094px;font-family:android;-inkscape-font-specification:'android, Normal';font-variant-ligatures:normal;font-variant-caps:normal;font-variant-numeric:normal;font-feature-settings:normal;text-align:start;writing-mode:lr-tb;text-anchor:start;fill:#000000;fill-opacity:1;stroke-width:2.03269672"
         d="m 780.91856,606.42 c 34.1596,0 57.85557,3.41333 83.52194,14.62573 18.12147,7.91639 33.03529,20.03132 46.33306,35.67538 20.05668,23.59553 31.16269,55.19032 32.07959,85.33214 0.85772,28.19634 -8.09052,58.01488 -25.10792,81.29369 -15.33389,20.97586 -39.62619,36.62169 -64.74694,46.26696 -21.08359,8.09517 -51.067,8.0726 -67.8183,8.0726 H 661.59833 V 718.11797 H 716.997 v 107.70875 h 72.44443 c 30.86645,0.72535 54.04775,-7.25936 72.44442,-23.93527 16.1614,-14.64972 25.47803,-37.82959 24.49836,-58.86907 -1.1615,-24.94445 -14.93926,-51.17308 -35.42262,-67.16471 -17.51213,-13.67196 -33.78313,-17.5779 -65.7816,-17.5779 H 661.59833 V 606.42 Z" />
    </g>
  </g>
  <g
     inkscape:groupmode="layer"
     id="layer2"
     inkscape:label="Lettres Noir"
     style="display:none">
    <path
       sodipodi:nodetypes="cccc"
       inkscape:connector-curvature="0"
       style="display:inline;fill:#404040;fill-opacity:1;stroke-width:1.17232883"
       d="m 620,190 70,-70 h -70 z"
       id="path4912" />
    <path
       sodipodi:nodetypes="ccaaaaaaaaaaaaaaccccaaaaaaaaaaaaaaaaaaaaaccc"
       inkscape:connector-curvature="0"
       style="display:inline;fill:#404040;fill-opacity:1;stroke-width:1.20804572"
       d="M 700,460 V 285 c 0,0 0.88588,-10.21267 1.95905,-15.21096 1.41694,-6.59938 3.31991,-13.13198 5.88548,-19.37518 2.42389,-5.89841 5.35814,-11.63433 8.91729,-16.92573 3.37752,-5.02137 7.41336,-9.60814 11.68652,-13.89322 3.974,-3.98509 8.32671,-7.61074 12.89024,-10.90434 5.03765,-3.63579 10.27919,-7.08133 15.90696,-9.7129 5.91394,-2.76539 12.18129,-4.84916 18.55028,-6.2838 6.68573,-1.506 13.56837,-2.51963 20.4204,-2.38982 7.91968,0.15004 15.89299,1.38018 23.48067,3.65417 6.71764,2.01325 13.10984,5.15315 19.14104,8.73147 5.4287,3.22086 10.42514,7.17453 15.15522,11.35436 4.62886,4.09039 8.97279,8.54364 12.85182,13.35101 4.04215,5.00952 7.66257,10.39163 10.76801,16.02994 3.45009,6.26407 6.70531,12.74996 8.65726,19.62976 C 888.74517,271.77784 890.0197,281.28501 890,290 v 170 h 70 V 290 c -0.0191,-7.98743 -1.37244,-17.85833 -2.92569,-26.66359 -1.65007,-9.35415 -3.85904,-18.63839 -6.77126,-27.67951 -2.79758,-8.68522 -6.22358,-17.1932 -10.23764,-25.38752 -2.81875,-5.75421 -6.10119,-11.29236 -9.67936,-16.60771 -3.29936,-4.90117 -6.95172,-9.57405 -10.82947,-14.03166 -5.02556,-5.77706 -10.37136,-11.29958 -16.06654,-16.41773 -6.14506,-5.52245 -12.62997,-10.70177 -19.45892,-15.35201 -6.26862,-4.26868 -12.83353,-8.14657 -19.657,-11.45679 -6.92103,-3.35755 -14.11314,-6.21324 -21.46819,-8.46648 -8.49409,-2.60219 -17.22322,-4.51429 -26.01525,-5.78756 -9.67427,-1.40103 -19.48862,-2.39674 -29.25633,-2.01419 -9.08071,0.35565 -18.07918,2.10741 -26.96887,3.994 -6.96095,1.47727 -13.88872,3.26354 -20.5676,5.7191 -7.0612,2.59612 -13.90166,5.83391 -20.48295,9.47904 -8.07529,4.4726 -15.91977,9.44885 -23.1922,15.13447 -7.94774,6.21358 -15.34294,13.17568 -22.16698,20.60587 -6.55655,7.13895 -12.64927,14.76643 -17.91859,22.90198 -4.60743,7.11362 -8.46903,14.72253 -11.86695,22.48694 -3.0933,7.06834 -5.52362,14.42575 -7.70721,21.82588 -1.7184,5.82364 -3.14284,11.74388 -4.23091,17.71747 -1.20419,6.61111 -2.10924,13.29343 -2.53209,20 -0.10488,1.66336 0,5 0,5 l 0.05,175 z"
       id="path4910" />
    <g
       aria-label="D"
       transform="matrix(1.1733132,0,0,1.25338,-146.26205,-140.0747)"
       style="font-style:normal;font-weight:normal;font-size:81.58670807px;line-height:1.25;font-family:sans-serif;letter-spacing:0px;word-spacing:0px;display:inline;fill:#000000;fill-opacity:1;stroke:none;stroke-width:2.03966761"
       id="text4898">
      <path
         d="m 780.91856,606.42 c 34.1596,0 57.85557,3.41333 83.52194,14.62573 18.12147,7.91639 33.03529,20.03132 46.33306,35.67538 20.05668,23.59553 31.16269,55.19032 32.07959,85.33214 0.85772,28.19634 -8.09052,58.01488 -25.10792,81.29369 -15.33389,20.97586 -39.62619,36.62169 -64.74694,46.26696 -21.08359,8.09517 -51.067,8.0726 -67.8183,8.0726 H 661.59833 V 718.11797 H 716.997 v 107.70875 h 72.44443 c 30.86645,0.72535 54.04775,-7.25936 72.44442,-23.93527 16.1614,-14.64972 25.47803,-37.82959 24.49836,-58.86907 -1.1615,-24.94445 -14.93926,-51.17308 -35.42262,-67.16471 -17.51213,-13.67196 -33.78313,-17.5779 -65.7816,-17.5779 H 661.59833 V 606.42 Z"
         style="font-style:normal;font-variant:normal;font-weight:normal;font-stretch:normal;font-size:391.61621094px;font-family:android;-inkscape-font-specification:'android, Normal';font-variant-ligatures:normal;font-variant-caps:normal;font-variant-numeric:normal;font-feature-settings:normal;text-align:start;writing-mode:lr-tb;text-anchor:start;fill:#404040;fill-opacity:1;stroke-width:2.03269672"
         id="path4900"
         inkscape:connector-curvature="0"
         sodipodi:nodetypes="sasaaascccccaaasccs" />
    </g>
  </g>
  <g
     inkscape:groupmode="layer"
     id="layer3"
     inkscape:label="Lettres Bleu"
     style="display:inline">
    <path
       sodipodi:nodetypes="cccc"
       inkscape:connector-curvature="0"
       style="display:inline;fill:#33b8cc;fill-opacity:1;stroke-width:1.17232883"
       d="m 620,190 70,-70 h -70 z"
       id="path4912-0" />
    <path
       sodipodi:nodetypes="ccaaaaaaaaaaaaaaccccaaaaaaaaaaaaaaaaaaaaaccc"
       inkscape:connector-curvature="0"
       style="display:inline;fill:#33b8cc;fill-opacity:1;stroke-width:1.20804572"
       d="M 700,460 V 285 c 0,0 0.88588,-10.21267 1.95905,-15.21096 1.41694,-6.59938 3.31991,-13.13198 5.88548,-19.37518 2.42389,-5.89841 5.35814,-11.63433 8.91729,-16.92573 3.37752,-5.02137 7.41336,-9.60814 11.68652,-13.89322 3.974,-3.98509 8.32671,-7.61074 12.89024,-10.90434 5.03765,-3.63579 10.27919,-7.08133 15.90696,-9.7129 5.91394,-2.76539 12.18129,-4.84916 18.55028,-6.2838 6.68573,-1.506 13.56837,-2.51963 20.4204,-2.38982 7.91968,0.15004 15.89299,1.38018 23.48067,3.65417 6.71764,2.01325 13.10984,5.15315 19.14104,8.73147 5.4287,3.22086 10.42514,7.17453 15.15522,11.35436 4.62886,4.09039 8.97279,8.54364 12.85182,13.35101 4.04215,5.00952 7.66257,10.39163 10.76801,16.02994 3.45009,6.26407 6.70531,12.74996 8.65726,19.62976 C 888.74517,271.77784 890.0197,281.28501 890,290 v 170 h 70 V 290 c -0.0191,-7.98743 -1.37244,-17.85833 -2.92569,-26.66359 -1.65007,-9.35415 -3.85904,-18.63839 -6.77126,-27.67951 -2.79758,-8.68522 -6.22358,-17.1932 -10.23764,-25.38752 -2.81875,-5.75421 -6.10119,-11.29236 -9.67936,-16.60771 -3.29936,-4.90117 -6.95172,-9.57405 -10.82947,-14.03166 -5.02556,-5.77706 -10.37136,-11.29958 -16.06654,-16.41773 -6.14506,-5.52245 -12.62997,-10.70177 -19.45892,-15.35201 -6.26862,-4.26868 -12.83353,-8.14657 -19.657,-11.45679 -6.92103,-3.35755 -14.11314,-6.21324 -21.46819,-8.46648 -8.49409,-2.60219 -17.22322,-4.51429 -26.01525,-5.78756 -9.67427,-1.40103 -19.48862,-2.39674 -29.25633,-2.01419 -9.08071,0.35565 -18.07918,2.10741 -26.96887,3.994 -6.96095,1.47727 -13.88872,3.26354 -20.5676,5.7191 -7.0612,2.59612 -13.90166,5.83391 -20.48295,9.47904 -8.07529,4.4726 -15.91977,9.44885 -23.1922,15.13447 -7.94774,6.21358 -15.34294,13.17568 -22.16698,20.60587 -6.55655,7.13895 -12.64927,14.76643 -17.91859,22.90198 -4.60743,7.11362 -8.46903,14.72253 -11.86695,22.48694 -3.0933,7.06834 -5.52362,14.42575 -7.70721,21.82588 -1.7184,5.82364 -3.14284,11.74388 -4.23091,17.71747 -1.20419,6.61111 -2.10924,13.29343 -2.53209,20 -0.10488,1.66336 0,5 0,5 l 0.05,175 z"
       id="path4910-7" />
    <g
       aria-label="D"
       transform="matrix(1.1733132,0,0,1.25338,-146.26205,-140.0747)"
       style="font-style:normal;font-weight:normal;font-size:81.58670807px;line-height:1.25;font-family:sans-serif;letter-spacing:0px;word-spacing:0px;display:inline;fill:#33b8cc;fill-opacity:1;stroke:none;stroke-width:2.03966761"
       id="text4898-6">
      <path
         d="m 780.91856,606.42 c 34.1596,0 57.85557,3.41333 83.52194,14.62573 18.12147,7.91639 33.03529,20.03132 46.33306,35.67538 20.05668,23.59553 31.16269,55.19032 32.07959,85.33214 0.85772,28.19634 -8.09052,58.01488 -25.10792,81.29369 -15.33389,20.97586 -39.62619,36.62169 -64.74694,46.26696 -21.08359,8.09517 -51.067,8.0726 -67.8183,8.0726 H 661.59833 V 718.11797 H 716.997 v 107.70875 h 72.44443 c 30.86645,0.72535 54.04775,-7.25936 72.44442,-23.93527 16.1614,-14.64972 25.47803,-37.82959 24.49836,-58.86907 -1.1615,-24.94445 -14.93926,-51.17308 -35.42262,-67.16471 -17.51213,-13.67196 -33.78313,-17.5779 -65.7816,-17.5779 H 661.59833 V 606.42 Z"
         style="font-style:normal;font-variant:normal;font-weight:normal;font-stretch:normal;font-size:391.61621094px;font-family:android;-inkscape-font-specification:'android, Normal';font-variant-ligatures:normal;font-variant-caps:normal;font-variant-numeric:normal;font-feature-settings:normal;text-align:start;writing-mode:lr-tb;text-anchor:start;fill:#33b8cc;fill-opacity:1;stroke-width:2.03269672"
         id="path4900-6"
         inkscape:connector-curvature="0"
         sodipodi:nodetypes="sasaaascccccaaasccs" />
    </g>
  </g>
</svg>
